<svg width="20" height="20" viewBox="0 0 20 20" fill="none" xmlns="http://www.w3.org/2000/svg">
<path d="M10 0C4.49 0 0 4.49 0 10C0 15.51 4.49 20 10 20C15.51 20 20 15.51 20 10C20 4.49 15.51 0 10 0ZM12.79 10.53L9.26 14.06C9.11 14.21 8.92 14.28 8.73 14.28C8.54 14.28 8.35 14.21 8.2 14.06C8.06052 13.9189 7.9823 13.7284 7.9823 13.53C7.9823 13.3316 8.06052 13.1411 8.2 13L11.2 10L8.2 7C8.06052 6.85886 7.9823 6.66843 7.9823 6.47C7.9823 6.27157 8.06052 6.08114 8.2 5.94C8.49 5.65 8.97 5.65 9.26 5.94L12.79 9.47C13.09 9.76 13.09 10.24 12.79 10.53Z" fill="white"/>
</svg>
