<svg width="74" height="60" viewBox="0 0 74 60" fill="none" xmlns="http://www.w3.org/2000/svg">
<path fill-rule="evenodd" clip-rule="evenodd" d="M33.5425 27.2543C36.9187 27.4682 40.2314 27.5188 43.5599 27.7023C47.3741 27.9076 47.3495 28.4019 49.6389 31.1017L61.541 42.8102C62.4314 44.0575 62.1351 45.4638 61.3373 46.4365L69.4729 46.3078C70.6378 46.3078 71.6973 46.4654 72.5124 46.9655C73.3854 47.4988 73.9389 48.3717 73.9953 49.7607C74.0011 49.8098 74.0011 49.8619 73.9953 49.9139L73.6123 53.0979C73.5559 54.1472 73.1194 55.0563 72.404 55.7024C71.7551 56.2892 70.8821 56.6534 69.8632 56.7011V57.9585H70.6277V59.4891H66.2484V57.9585H67.0145V56.6924L57.7283 56.6433V57.9585H58.4929V59.4891H54.1136V57.9585H54.8796V56.6274L54.5515 56.6259C53.7277 56.6664 53.0079 56.4106 52.4197 55.9466C51.7332 55.4046 51.236 54.5794 50.97 53.6197C50.7142 52.699 50.6694 51.6468 50.8718 50.6076C51.1493 49.1811 51.8936 47.7647 53.1973 46.7255C53.3143 46.6244 53.4646 46.5622 53.6309 46.5608L56.8857 46.5087L46.8437 37.8441C44.5716 35.442 44.9937 35.7672 41.5365 36.328C37.6067 36.9682 33.1522 38.0551 29.3135 37.1171C24.6148 35.9739 24.1277 33.0081 21.4524 29.535C19.83 27.6734 18.4623 25.6044 17.3853 23.3823C16.8332 21.9774 16.1915 20.7952 15.8851 19.6794C15.4486 18.3931 15.7405 16.9535 16.641 15.936C17.5587 14.8015 18.358 13.9849 19.124 13.4805C19.8264 12.7419 20.9018 12.4008 21.9554 12.6826L35.7856 16.4029C37.3219 16.8133 38.2354 18.3916 37.8249 19.928C37.4144 21.4644 35.8362 22.3764 34.2998 21.9659L30.185 20.8588C31.4973 22.8042 32.6146 24.9374 33.5425 27.2543ZM36.1946 57.6058H37.1355V55.4408L25.7103 55.4032V57.6058H26.6512V59.4891H21.2645V57.6058H22.2054V55.3916L19.0864 55.3815C18.2265 55.4234 17.4951 54.9971 16.9084 54.2527C16.8635 54.1964 16.8202 54.1385 16.7783 54.0793C16.5201 54.2303 16.2526 54.365 15.9776 54.4825L15.8836 54.5244C15.5295 54.6502 15.1393 54.4652 15.0121 54.1111L2.34972 18.7327C1.89878 18.5694 1.55191 18.2124 1.28742 17.7094L1.28019 17.6964C0.032885 15.1744 -0.280748 13.0888 0.242455 11.3544C0.77433 9.58967 2.14449 8.2412 4.25898 7.21358C4.42153 7.13513 4.60856 7.12441 4.77902 7.18375C4.94947 7.2431 5.0894 7.36767 5.16808 7.5301C6.19425 9.73565 7.48203 11.9224 8.54867 14.1236C8.77992 14.6078 8.88542 15.0732 8.81894 15.514C8.79726 15.66 8.75679 15.7987 8.70042 15.9317C8.8058 15.9273 8.91073 15.9477 9.00685 15.9911C9.10296 16.0345 9.18759 16.0998 9.25398 16.1817C10.0908 17.2151 11.0606 18.3642 12.0608 19.5508C15.4125 23.5254 19.1312 27.9379 21.146 31.9732C21.464 32.6092 22.0667 33.9533 22.4887 35.1789C22.785 36.036 22.996 36.8598 22.9772 37.4062L22.9729 37.5377C22.9642 37.9395 22.9411 38.9729 22.8153 40.3474L42.8806 37.3859C43.0989 37.3556 43.3185 37.3353 43.5382 37.3296H43.5426C44.5037 37.2992 45.3897 37.5102 46.0849 37.9958C46.8061 38.5003 47.3047 39.2793 47.4536 40.3604C47.4753 40.5194 47.4897 40.6899 47.4955 40.872C47.5186 44.4188 47.2151 48.2272 47.1139 51.8058C47.0691 52.8753 46.6298 53.8018 45.9042 54.4565C45.2018 55.0924 44.2378 55.4653 43.1104 55.461L40.6404 55.4523V57.6058H41.5813V59.4891H36.1946V57.6058ZM13.9888 0.0130325C11.0202 0.189361 8.46484 2.34288 7.85781 5.34624C7.13081 8.95229 9.46355 12.4673 13.0696 13.1957C16.6771 13.9242 20.1921 11.59 20.9205 7.98393C20.9625 7.7787 20.9943 7.56768 21.0159 7.361C21.37 3.94284 19.0677 0.813736 15.6986 0.132993C15.1393 0.0202591 14.6334 -0.0245456 13.9888 0.0130325Z" fill="#9138E8"/>
</svg>
