<svg width="58" height="58" viewBox="0 0 58 58" fill="none" xmlns="http://www.w3.org/2000/svg">
<path d="M48.5698 2.10547C46.9526 0.886719 45.1011 0.230469 43.2144 0.230469C38.023 0.230469 33.8276 4.87109 33.687 10.7891C33.6167 13.4844 34.4253 16.0742 35.9722 18.1367C34.8823 19.5898 34.1558 21.3125 33.8511 23.1523C32.5151 24.5352 30.6401 27.3828 29.1167 30.1367C27.4761 27.1719 25.4487 24.1133 24.0894 22.8594C23.7612 21.1367 23.0464 19.5078 22.0151 18.1367C23.562 16.0742 24.3706 13.4844 24.3003 10.7891C24.148 4.87109 19.9644 0.230469 14.773 0.230469C12.8862 0.230469 11.0347 0.875 9.41749 2.10547C2.66749 7.23828 -0.250478 20.1875 0.370616 30.3359C0.921397 39.3828 4.06202 46.0156 9.20655 49.0156C10.7534 49.918 12.4761 50.3867 14.2222 50.3867C19.73 50.3867 24.0659 45.9922 24.312 40.168C24.4292 37.2969 23.5737 34.5547 21.8862 32.4102C22.4956 31.6367 22.9995 30.7695 23.3862 29.8555C24.4761 31.5664 25.9409 33.9336 26.7378 35.6211V55.2617C26.7378 56.5859 27.8042 57.6641 29.1284 57.6641C30.4526 57.6641 31.5191 56.5859 31.5191 55.2617V35.668C32.2691 34.0508 33.6636 31.7656 34.73 30.0781C35.105 30.9102 35.5737 31.6953 36.1362 32.4102C34.4487 34.5547 33.5816 37.2969 33.7105 40.168C33.9566 45.9922 38.2925 50.3867 43.8003 50.3867C45.5347 50.3867 47.2691 49.9062 48.8159 49.0156C53.9605 46.0156 57.1011 39.3828 57.6519 30.3359C58.2495 20.1875 55.3315 7.23828 48.5698 2.10547ZM17.9722 35.1992C19.0269 36.4531 19.6011 38.1875 19.5191 39.957C19.3667 43.6133 16.6714 45.582 14.2105 45.582C13.3081 45.582 12.4292 45.3359 11.6089 44.8555C7.94093 42.7227 5.58546 37.3203 5.15187 30.0312C4.54249 20.0234 7.69483 9.42969 12.3237 5.91406C13.1089 5.31641 13.9409 5.01172 14.7847 5.01172C16.9995 5.01172 19.437 7.26172 19.5308 10.8945C19.5776 12.582 19.0503 14.1875 18.0659 15.418C16.812 16.9648 16.812 19.2969 18.0542 20.8203C19.0034 21.9922 19.5308 23.5391 19.5308 25.168C19.5308 26.8555 18.9683 28.4375 17.9605 29.6211C16.6128 31.2148 16.6128 33.6055 17.9722 35.1992ZM52.8589 30.043C52.4136 37.332 50.0581 42.7344 46.4019 44.8672C45.5816 45.3477 44.7026 45.5938 43.8003 45.5938C41.3394 45.5938 38.6441 43.625 38.4917 39.9688C38.4214 38.1875 38.9839 36.4531 40.0386 35.2109C41.398 33.6172 41.398 31.2148 40.0503 29.6445C39.0425 28.4609 38.48 26.8789 38.48 25.1914C38.48 23.5625 39.0073 22.0273 39.9566 20.8555C41.1987 19.3203 41.1987 17 39.9448 15.4531C38.9605 14.2344 38.4448 12.6289 38.48 10.9414C38.5737 7.30859 41.0112 5.05859 43.2261 5.05859C44.0815 5.05859 44.9019 5.36328 45.687 5.96094C50.3159 9.44141 53.4566 20.0352 52.8589 30.043Z" fill="#9138E8"/>
</svg>
