<svg width="56" height="55" viewBox="0 0 56 55" fill="none" xmlns="http://www.w3.org/2000/svg">
<path d="M55.1967 36.5229L47.9529 18.6042C47.3895 16.8887 46.2357 15.4289 44.6968 14.4845C43.1578 13.5401 41.3337 13.1725 39.5492 13.4471C37.7646 13.7216 36.1353 14.6205 34.9515 15.9838C33.7676 17.3471 33.1059 19.0862 33.0842 20.8917V25.5938L30.5425 23.6875V3.35417C30.5425 2.68007 30.2747 2.03359 29.798 1.55694C29.3214 1.08028 28.6749 0.8125 28.0008 0.8125C27.3267 0.8125 26.6802 1.08028 26.2036 1.55694C25.7269 2.03359 25.4592 2.68007 25.4592 3.35417V23.6875L22.9175 25.5938V20.8917C22.9012 19.896 22.6867 18.9136 22.2866 18.0017C21.8865 17.0898 21.3088 16.2668 20.5871 15.5806C19.8655 14.8945 19.0143 14.3589 18.0835 14.0053C17.1526 13.6516 16.1606 13.4869 15.1654 13.5208C13.5965 13.517 12.0659 14.0055 10.7892 14.9174C9.51245 15.8294 8.55399 17.1188 8.04874 18.6042L0.804986 36.2687V36.5229C-0.00813754 38.8275 -0.153242 41.3149 0.38641 43.6984C0.926061 46.0819 2.12848 48.2642 3.85499 49.9938C6.5219 52.6544 10.1275 54.1605 13.8946 54.1875C15.3153 54.1721 16.7268 53.9582 18.0883 53.5521L19.3592 53.1708C20.3985 52.8654 21.3092 52.2278 21.9518 51.3557C22.5945 50.4836 22.9337 49.4249 22.9175 48.3417V41.4792C22.9175 40.8051 22.6497 40.1586 22.173 39.6819C21.6964 39.2053 21.0499 38.9375 20.3758 38.9375C19.7017 38.9375 19.0552 39.2053 18.5786 39.6819C18.1019 40.1586 17.8342 40.8051 17.8342 41.4792V48.3417L16.6904 48.7229C15.1027 49.2227 13.4076 49.2736 11.7927 48.8699C10.1779 48.4662 8.70615 47.6236 7.5404 46.4354C6.49571 45.3649 5.7563 44.0345 5.39878 42.5821C5.04126 41.1297 5.07865 39.6081 5.50707 38.175L12.7508 20.3833H12.8779C13.0208 19.858 13.3371 19.3964 13.7755 19.0734C14.2138 18.7504 14.7484 18.5851 15.2925 18.6042C15.6097 18.587 15.9271 18.6327 16.2267 18.7384C16.5262 18.8442 16.8019 19.008 17.038 19.2205C17.2741 19.433 17.466 19.69 17.6026 19.9768C17.7392 20.2635 17.8179 20.5744 17.8342 20.8917V29.4062L11.2258 34.3625C10.9588 34.5628 10.7338 34.8137 10.5638 35.1009C10.3937 35.3881 10.2819 35.706 10.2347 36.0364C10.1394 36.7037 10.313 37.3816 10.7175 37.9208C11.1219 38.4601 11.7241 38.8166 12.3914 38.912C13.0587 39.0073 13.7365 38.8336 14.2758 38.4292L28.0008 28.1354L41.7258 38.4292C42.1612 38.7678 42.6993 38.9472 43.2508 38.9375C43.6437 38.9282 44.0297 38.8322 44.3812 38.6565C44.7326 38.4808 45.041 38.2296 45.2842 37.9208C45.4844 37.6538 45.6301 37.35 45.713 37.0266C45.7958 36.7033 45.8141 36.3668 45.7669 36.0364C45.7197 35.706 45.6079 35.3881 45.4379 35.1009C45.2678 34.8137 45.0428 34.5628 44.7758 34.3625L38.1675 29.4062V20.8917C38.1829 20.5628 38.2655 20.2406 38.41 19.9449C38.5546 19.6491 38.7581 19.386 39.008 19.1718C39.258 18.9575 39.5491 18.7967 39.8635 18.699C40.1779 18.6014 40.5089 18.5692 40.8362 18.6042C41.3473 18.5842 41.8504 18.736 42.2651 19.0355C42.6797 19.335 42.9821 19.7648 43.1237 20.2563L50.4946 38.175C50.923 39.6081 50.9604 41.1297 50.6029 42.5821C50.2453 44.0345 49.5059 45.3649 48.4612 46.4354C47.2955 47.6236 45.8238 48.4662 44.2089 48.8699C42.5941 49.2736 40.899 49.2227 39.3112 48.7229L38.1675 48.3417V41.4792C38.1675 40.8051 37.8997 40.1586 37.423 39.6819C36.9464 39.2053 36.2999 38.9375 35.6258 38.9375C34.9517 38.9375 34.3052 39.2053 33.8286 39.6819C33.3519 40.1586 33.0842 40.8051 33.0842 41.4792V48.3417C33.068 49.4249 33.4072 50.4836 34.0498 51.3557C34.6924 52.2278 35.6031 52.8654 36.6425 53.1708L37.9133 53.5521C39.2769 53.9489 40.6872 54.1626 42.1071 54.1875C45.8741 54.1605 49.4797 52.6544 52.1467 49.9938C53.8732 48.2642 55.0756 46.0819 55.6152 43.6984C56.1549 41.3149 56.0098 38.8275 55.1967 36.5229Z" fill="#9138E8"/>
</svg>
