<svg width="75" height="64" viewBox="0 0 75 64" fill="none" xmlns="http://www.w3.org/2000/svg">
<path fill-rule="evenodd" clip-rule="evenodd" d="M37.2989 5.61504C39.9173 2.88676 41.7483 0.530807 45.7767 0.0669396C53.345 -0.805863 60.303 6.9456 56.4822 14.5689C55.3958 16.7478 53.1802 19.3296 50.7327 21.8931C48.0411 24.6763 45.0687 27.3863 42.9813 29.4676L37.2989 35.1072L32.6053 30.5845C26.9595 25.1463 17.7432 18.292 17.438 9.83256C17.2305 3.83891 21.918 0.0303185 27.3135 0.0974571C32.1353 0.164596 34.1617 2.53886 37.2989 5.59062V5.61504ZM55.2676 57.1836H55.7376C55.9124 57.1836 56.0801 57.2531 56.2037 57.3767C56.3273 57.5003 56.3968 57.668 56.3968 57.8428V63.0125C56.3968 63.1873 56.3273 63.355 56.2037 63.4786C56.0801 63.6022 55.9124 63.6717 55.7376 63.6717H40.6558C40.481 63.6717 40.3133 63.6022 40.1897 63.4786C40.0661 63.355 39.9966 63.1873 39.9966 63.0125V57.8184C39.9966 57.6436 40.0661 57.4759 40.1897 57.3523C40.3133 57.2287 40.481 57.1592 40.6558 57.1592C45.0748 57.1592 51.0318 56.8113 55.2676 57.1592V57.1836ZM54.761 55.8531H40.6619C40.4908 55.8421 40.3309 55.7642 40.2167 55.6363C40.1025 55.5084 40.0432 55.3407 40.0516 55.1695C40.1065 53.9488 40.2164 52.7708 40.3384 51.5501C40.4605 50.5308 40.5643 49.6397 40.6985 48.8645C40.8112 48.1303 41.0015 47.4102 41.2662 46.7161C41.5372 46.0391 41.9097 45.4072 42.3709 44.8423C42.9389 44.1462 43.5748 43.5083 44.2691 42.938C44.7757 42.5169 45.2273 42.1568 45.7645 41.7784L46.3016 41.4549L48.4073 40.283C49.6987 39.6409 50.9501 38.9214 52.1548 38.1285C53.6946 37.0361 55.1456 35.8239 56.4944 34.503C57.5748 33.5691 59.1006 32.3484 60.0589 31.3536C60.6146 30.6751 61.264 30.0791 61.9876 29.5835C62.5534 29.17 63.2402 28.9554 63.9407 28.9732C64.0984 28.9879 64.2528 29.027 64.3985 29.0892C64.5233 29.1449 64.6402 29.2167 64.7464 29.3028L64.8013 29.3577C64.9241 29.4709 65.0254 29.6053 65.1004 29.7544C65.1679 29.8846 65.2211 30.0217 65.2591 30.1634C65.3694 30.7204 65.3054 31.298 65.076 31.8174C64.8516 32.378 64.5151 32.8868 64.0872 33.3128L55.1089 43.3348C55.0221 43.4304 54.9658 43.5499 54.9474 43.6778C54.9291 43.8058 54.9495 43.9363 55.0059 44.0525C55.0624 44.1687 55.1524 44.2654 55.2643 44.33C55.3762 44.3946 55.5049 44.4243 55.6338 44.4151C55.7916 44.4065 55.9411 44.3415 56.055 44.232C59.0091 40.9035 61.9835 37.5873 64.9783 34.2832C65.1977 34.0723 65.4017 33.8459 65.5887 33.6058C65.7579 33.3895 65.9109 33.161 66.0464 32.9222C67.6089 30.438 69.9161 23.8279 71.2039 20.7579L71.326 20.5686C71.5623 20.313 71.8311 20.0893 72.1255 19.9034H72.1622C72.4501 19.7266 72.7728 19.6142 73.1082 19.5738C73.2618 19.5491 73.4184 19.5491 73.5721 19.5738C73.7084 19.6043 73.8399 19.6536 73.9627 19.7203L74.0298 19.7569C74.1962 19.858 74.343 19.9883 74.4632 20.1414C74.572 20.3036 74.6621 20.4777 74.7317 20.6602C74.997 21.4767 75.0722 22.3431 74.9515 23.1932C74.805 24.3103 74.5411 25.409 74.1641 26.4707C73.3523 29.2478 72.565 32.0494 71.8082 34.8509C71.4654 36.3744 70.9684 37.8591 70.325 39.282C69.4621 40.9111 68.3911 42.4212 67.139 43.7742C65.7046 45.4222 64.2947 46.9053 62.9214 48.2786C61.5481 49.6519 60.1871 50.9397 58.8687 52.1849L55.2981 55.615C55.2363 55.6895 55.1589 55.7494 55.0714 55.7905C54.9838 55.8316 54.8883 55.853 54.7916 55.8531H54.761ZM34.3082 55.8531H20.2396C20.1428 55.853 20.0473 55.8316 19.9597 55.7905C19.8722 55.7494 19.7948 55.6895 19.733 55.615L18.024 53.9488L16.138 52.1604C14.7952 50.8909 13.428 49.597 12.1097 48.2786C10.7364 46.9114 9.33867 45.4344 7.91656 43.7986C6.65186 42.4453 5.56855 40.9331 4.6939 39.3003C4.05268 37.8772 3.55779 36.3925 3.21685 34.8692C2.4417 32.0555 1.67266 29.2295 0.836477 26.4707C0.458407 25.4093 0.194467 24.3105 0.0491237 23.1932C-0.0772193 22.3461 -0.00620005 21.4814 0.256643 20.6663C0.323768 20.4808 0.413997 20.3044 0.525198 20.1414C0.636273 19.9765 0.777006 19.8337 0.940237 19.7203L1.01348 19.6836C1.13502 19.6129 1.26679 19.5614 1.4041 19.531C1.55773 19.5062 1.71435 19.5062 1.86797 19.531C2.20383 19.5695 2.52696 19.6821 2.81402 19.8606H2.85674C3.15488 20.0511 3.42589 20.2811 3.66241 20.5442L3.78448 20.7395C5.06621 23.7913 7.40386 30.4686 8.94805 32.9039C9.08303 33.1387 9.23824 33.3613 9.41192 33.5691C9.59863 33.8 9.80267 34.0163 10.0223 34.2161C13.074 37.2679 15.9549 40.991 18.9517 44.1648C19.0729 44.2746 19.2307 44.3354 19.3942 44.3354C19.5578 44.3354 19.7155 44.2746 19.8367 44.1648C19.9033 44.1095 19.9573 44.0405 19.9952 43.9627C20.0331 43.8848 20.054 43.7997 20.0564 43.7132C20.0626 43.6282 20.0517 43.5429 20.0244 43.4622C19.9972 43.3815 19.9541 43.3071 19.8978 43.2432L10.9134 33.3128C10.4758 32.9062 10.1267 32.4138 9.88799 31.8663C9.65253 31.3484 9.58839 30.769 9.70488 30.2122C9.74019 30.0697 9.79352 29.9323 9.86358 29.8033C9.93695 29.6513 10.0384 29.5146 10.1626 29.4004C10.2827 29.2928 10.4186 29.2043 10.5655 29.138C10.71 29.0787 10.862 29.0396 11.0171 29.022H11.0538C11.7543 29.0043 12.4411 29.2189 13.0069 29.6324C13.7297 30.1267 14.3772 30.7228 14.9295 31.4024C15.961 32.4827 17.3709 33.5203 18.4939 34.5701C19.8454 35.8881 21.2962 37.1001 22.8335 38.1956C24.0427 38.9645 25.2961 39.6615 26.5872 40.283L28.6868 41.4183L29.2178 41.7478C29.7549 42.1263 30.2127 42.4925 30.7132 42.9075C31.4108 43.4762 32.0488 44.1142 32.6175 44.8118C33.0769 45.3769 33.4473 46.0088 33.7161 46.6856C33.978 47.3805 34.1682 48.1004 34.2837 48.834C34.4119 49.6092 34.5218 50.5003 34.6377 51.5196C34.7659 52.7403 34.8636 53.9122 34.9307 55.1329C34.9407 55.3051 34.8822 55.4744 34.7678 55.6036C34.6534 55.7328 34.4926 55.8116 34.3204 55.8226L34.3082 55.8531ZM19.6048 57.1714C23.7979 57.5437 29.9319 57.1714 34.3387 57.1714C34.5135 57.1714 34.6812 57.2409 34.8048 57.3645C34.9284 57.4881 34.9979 57.6558 34.9979 57.8306V63.0003C34.9979 63.1751 34.9284 63.3428 34.8048 63.4664C34.6812 63.59 34.5135 63.6595 34.3387 63.6595H19.2569C19.1706 63.6595 19.0852 63.6424 19.0055 63.6092C18.9259 63.576 18.8536 63.5273 18.7929 63.466C18.7322 63.4047 18.6842 63.332 18.6518 63.2521C18.6193 63.1721 18.603 63.0866 18.6038 63.0003V57.8184C18.603 57.7321 18.6193 57.6465 18.6518 57.5666C18.6842 57.4867 18.7322 57.414 18.7929 57.3527C18.8536 57.2914 18.9259 57.2427 19.0055 57.2095C19.0852 57.1763 19.1706 57.1592 19.2569 57.1592H19.6048V57.1714ZM36.011 10.6932H38.9346C39.1974 10.6932 39.4496 10.7971 39.636 10.9824C39.8224 11.1676 39.9279 11.4191 39.9295 11.6819V14.8619H43.1094C43.2426 14.8594 43.375 14.8837 43.4986 14.9334C43.6223 14.983 43.7347 15.057 43.8292 15.151C43.9237 15.2449 43.9983 15.3568 44.0487 15.4802C44.0991 15.6035 44.1243 15.7357 44.1226 15.8689V18.7864C44.1226 19.0492 44.0186 19.3014 43.8334 19.4878C43.6481 19.6742 43.3966 19.7797 43.1338 19.7813H39.9539V22.8758C39.9523 23.1391 39.847 23.3913 39.6607 23.5775C39.4745 23.7637 39.2224 23.8691 38.959 23.8707H36.011C35.7482 23.869 35.4968 23.7635 35.3115 23.5771C35.1262 23.3907 35.0223 23.1386 35.0223 22.8758V19.7691H31.8668C31.6034 19.7675 31.3513 19.6622 31.165 19.4759C30.9788 19.2897 30.8735 19.0376 30.8719 18.7742V15.8689C30.8735 15.6061 30.979 15.3547 31.1654 15.1694C31.3518 14.9841 31.6039 14.8802 31.8668 14.8802H35.0467V11.6819C35.0481 11.4243 35.1495 11.1773 35.3293 10.9929C35.5092 10.8085 35.7536 10.7011 36.011 10.6932Z" fill="#E31276"/>
</svg>
