<svg width="72" height="36" viewBox="0 0 72 36" fill="none" xmlns="http://www.w3.org/2000/svg">
<path d="M21.3311 24.1405C21.7294 24.5072 23.049 25.2002 25.2 25.2002C27.351 25.2002 28.6718 24.5072 29.0689 24.1405C30.8711 22.4788 32.9501 21.6002 35.0831 21.6002H36.9169C39.0499 21.6002 41.13 22.4788 42.9311 24.1405C43.3294 24.5072 44.649 25.2002 46.8 25.2002C48.951 25.2002 50.2718 24.5072 50.6689 24.1405C52.3406 22.5981 54.2554 21.7645 56.2253 21.6475L43.5308 12.58L45.5557 11.1332C45.9652 10.843 46.4872 10.7372 46.9755 10.8396L58.2649 13.2617C61.1797 13.8838 64.0519 12.0276 64.6774 9.11272C65.3017 6.19672 63.4455 3.32573 60.5284 2.70023L49.239 0.278101C45.7819 -0.462149 42.1493 0.2916 39.276 2.34585L30.2738 8.77747C29.106 9.60885 28.0957 10.627 27.2677 11.8082L19.5469 22.8377C20.1622 23.2011 20.7641 23.6173 21.3311 24.1405ZM70.2 28.8002H68.4C65.4705 28.8002 63.2475 27.853 62.0899 26.7865C61.0886 25.8628 59.8781 25.2002 58.5158 25.2002H56.682C55.3196 25.2002 54.1091 25.8628 53.1079 26.7865C51.9525 27.853 49.7295 28.8002 46.8 28.8002C43.8705 28.8002 41.6475 27.853 40.4899 26.7865C39.4886 25.8628 38.2781 25.2002 36.9158 25.2002H35.082C33.7196 25.2002 32.5091 25.8628 31.5079 26.7865C30.3525 27.853 28.1295 28.8002 25.2 28.8002C22.2705 28.8002 20.0475 27.853 18.8899 26.7865C17.8886 25.8628 16.6781 25.2002 15.3157 25.2002H13.482C12.1196 25.2002 10.9091 25.8628 9.90788 26.7865C8.7525 27.853 6.5295 28.8002 3.6 28.8002H1.8C0.8055 28.8002 0 29.6057 0 30.6002V34.2002C0 35.1947 0.8055 36.0002 1.8 36.0002H3.6C7.94475 36.0002 11.781 34.6288 14.4 32.4182C17.019 34.63 20.8552 36.0002 25.2 36.0002C29.5447 36.0002 33.381 34.6288 36 32.4182C38.619 34.63 42.4552 36.0002 46.8 36.0002C51.1447 36.0002 54.981 34.6288 57.6 32.4182C60.219 34.63 64.0553 36.0002 68.4 36.0002H70.2C71.1945 36.0002 72 35.1947 72 34.2002V30.6002C72 29.6057 71.1945 28.8002 70.2 28.8002ZM12.6 18.0002C17.5702 18.0002 21.6 13.9705 21.6 9.00022C21.6 4.02997 17.5702 0.000225665 12.6 0.000225665C7.62975 0.000225665 3.6 4.02997 3.6 9.00022C3.6 13.9705 7.62975 18.0002 12.6 18.0002Z" fill="#9138E8"/>
</svg>
