<svg width="60" height="41" viewBox="0 0 60 41" fill="none" xmlns="http://www.w3.org/2000/svg">
<path fill-rule="evenodd" clip-rule="evenodd" d="M56.2149 15.1609C56.2141 14.0977 55.3516 13.2366 54.2885 13.2375L29.6052 13.2576C26.3446 13.2604 25.5374 8.72494 28.5988 7.60261L31.9312 6.38067C33.1491 5.93428 33.4983 4.37867 32.5885 3.45424C32.0988 2.95665 31.3636 2.7904 30.7075 3.02899L13.236 9.3809C7.51981 11.459 3.71637 16.8935 3.72136 22.9756C3.72789 30.9577 10.2039 37.4232 18.186 37.4166L34.3203 37.4034C35.1255 37.4028 35.778 36.7493 35.7773 35.9439L35.7765 35.0107C35.776 34.2052 35.1225 33.5528 34.317 33.5535L28.8689 33.5579L28.8664 30.6412L39.2305 30.6328C40.0359 30.6322 40.6882 29.9787 40.6876 29.1733L40.6868 28.2401C40.6862 27.4346 40.0327 26.7822 39.2273 26.7829L32.1879 26.7887L32.1855 23.8721L40.3271 23.8654C41.1326 23.8646 41.7849 23.2112 41.7843 22.4059L41.7836 21.4725C41.7828 20.6671 41.1294 20.0148 40.3239 20.0155L32.1823 20.0221L32.18 17.1054L54.2915 17.0873C55.3547 17.0864 56.2158 16.224 56.2149 15.1609ZM44.45 20.012L54.294 20.004C56.9679 20.0018 59.1338 17.8324 59.1316 15.1584C59.1294 12.4845 56.96 10.3186 54.286 10.3208L29.6028 10.3409L32.9353 9.11913C36.1439 7.94269 37.0645 3.8439 34.6672 1.40819C33.3767 0.0971513 31.4399 -0.34064 29.7109 0.287901L12.2395 6.63967C5.3697 9.13721 0.7987 15.6684 0.804693 22.9781C0.812539 32.5709 8.59547 40.3412 18.1883 40.3333L34.3226 40.32C36.7388 40.3181 38.696 38.3577 38.6939 35.9415L38.6932 35.0082C38.6928 34.4969 38.6047 34.0062 38.4431 33.5502L39.2328 33.5494C41.6491 33.5475 43.6062 31.5871 43.6043 29.1709L43.6034 28.2376C43.6028 27.3855 43.3584 26.5904 42.9364 25.9181C44.0083 25.12 44.7021 23.8426 44.701 22.4034L44.7002 21.4702C44.6998 20.9589 44.6116 20.468 44.45 20.012Z" fill="#9138E8"/>
</svg>
