<svg width="107" height="107" viewBox="0 0 107 107" fill="none" xmlns="http://www.w3.org/2000/svg">
<circle cx="53.5" cy="53.5" r="53.5" fill="#3AE57F"/>
<path d="M48.4611 76.4478C47.1107 76.4503 45.7961 76.0133 44.7156 75.2026L44.6486 75.1523L30.5432 64.344C29.8899 63.8431 29.3417 63.2183 28.9297 62.5053C28.5177 61.7923 28.2501 61.0051 28.1421 60.1886C28.0341 59.3721 28.0878 58.5423 28.3003 57.7466C28.5127 56.9509 28.8797 56.2049 29.3802 55.5511C29.8807 54.8973 30.505 54.3486 31.2174 53.9363C31.9298 53.524 32.7164 53.2561 33.5323 53.148C34.3481 53.04 35.1772 53.0938 35.9723 53.3064C36.7674 53.519 37.5128 53.8862 38.166 54.3871L47.3025 61.3985L68.8933 33.2182C69.3941 32.5646 70.0186 32.0161 70.7311 31.6041C71.4437 31.192 72.2304 30.9244 73.0462 30.8166C73.8621 30.7088 74.6912 30.763 75.4862 30.9759C76.2812 31.1888 77.0265 31.5563 77.6796 32.0575L77.5453 32.2399L77.683 32.0601C79.0004 33.0734 79.8623 34.5683 80.0798 36.2168C80.2972 37.8653 79.8524 39.5328 78.8429 40.8535L53.4468 74.0002C52.8595 74.764 52.1042 75.3821 51.2395 75.8066C50.3749 76.2311 49.4242 76.4505 48.4611 76.4478Z" fill="white"/>
</svg>
