<svg width="497" height="303" viewBox="0 0 497 303" fill="none" xmlns="http://www.w3.org/2000/svg">
<path d="M249.964 302.771C386.398 302.771 497 247.96 497 180.347C497 112.734 386.398 57.9233 249.964 57.9233C113.529 57.9233 2.92676 112.734 2.92676 180.347C2.92676 247.96 113.529 302.771 249.964 302.771Z" fill="white"/>
<path d="M115.66 165.64L125.165 160.931C125.165 160.931 127.486 143.469 125.943 129.944C123.722 110.947 109.463 88.0811 92.4064 93.4474C75.3495 98.8137 100.18 118.172 105.732 134.29C111.285 150.408 115.66 165.64 115.66 165.64Z" fill="#9138E8"/>
<path opacity="0.15" d="M115.66 165.64L125.165 160.931C125.165 160.931 127.486 143.469 125.943 129.944C123.722 110.947 109.463 88.0811 92.4064 93.4474C75.3495 98.8137 100.18 118.172 105.732 134.29C111.285 150.408 115.66 165.64 115.66 165.64Z" fill="white"/>
<path d="M120.633 163.658C120.482 163.653 120.339 163.597 120.235 163.502C120.132 163.408 120.075 163.282 120.078 163.152C121.744 120.927 97.3134 99.6814 97.0136 99.4717C96.9595 99.4264 96.9166 99.3723 96.8872 99.3126C96.8579 99.2528 96.8428 99.1886 96.8428 99.1238C96.8428 99.059 96.8579 98.9948 96.8872 98.9351C96.9166 98.8753 96.9595 98.8212 97.0136 98.7759C97.1216 98.6845 97.2672 98.6333 97.4189 98.6333C97.5706 98.6333 97.7162 98.6845 97.8242 98.7759C98.0685 98.9951 122.921 120.537 121.233 163.19C121.224 163.32 121.157 163.442 121.045 163.529C120.932 163.617 120.785 163.663 120.633 163.658Z" fill="white"/>
<path d="M110.64 169.014L117.303 165.659C117.303 165.659 118.414 153.678 111.618 139.123C105.654 126.446 90.8739 115.933 83.4337 118.153C75.9935 120.374 76.2156 124.864 79.8468 129.629C83.4781 134.395 105.532 145.69 110.64 169.014Z" fill="#9138E8"/>
<path d="M114.162 167.756C114.008 167.756 113.862 167.703 113.753 167.61C113.645 167.517 113.584 167.391 113.584 167.26C113.717 140.571 84.5118 122.519 84.212 122.338C84.0892 122.261 84.0064 122.146 83.9815 122.018C83.9566 121.889 83.9915 121.758 84.0787 121.651C84.1219 121.598 84.177 121.553 84.2408 121.518C84.3047 121.483 84.3759 121.46 84.4504 121.449C84.5249 121.439 84.6012 121.441 84.6746 121.456C84.7481 121.471 84.8173 121.499 84.8783 121.537C85.1781 121.718 114.861 140.057 114.739 167.289C114.728 167.414 114.663 167.532 114.556 167.618C114.449 167.705 114.308 167.754 114.162 167.756Z" fill="white"/>
<path d="M410.223 59.6052L424.235 66.5815C424.152 66.0542 424.109 65.523 424.105 64.9909V61.4051C424.105 55.2102 429.177 52.6987 435.484 55.8241C438.173 57.247 440.474 59.1505 442.23 61.4051C443.254 53.6196 450.358 50.7174 459.022 55.0009C468.369 59.6331 475.96 70.9068 475.96 80.1156V85.3199C476.021 87.4021 475.526 89.4687 474.513 91.3613L486.152 97.1238C487.978 98.1449 489.497 99.5209 490.587 101.14C491.677 102.76 492.307 104.577 492.427 106.444C492.427 109.89 489.614 111.272 486.152 109.556L410.223 72.037C408.397 71.0159 406.878 69.6399 405.788 68.0205C404.698 66.4012 404.067 64.5841 403.948 62.7167C403.948 59.2704 406.76 57.8751 410.223 59.6052Z" fill="#F8F1FF"/>
<path d="M352.143 90.5521L362.4 95.6308C362.376 95.2451 362.376 94.8585 362.4 94.4728V91.9195C362.4 87.3709 366.106 85.5292 370.69 87.7337C372.636 88.7829 374.299 90.1767 375.567 91.8218C376.315 86.1012 381.533 83.9804 387.872 87.1198C391.484 89.1412 394.491 91.8645 396.649 95.0691C398.806 98.2737 400.054 101.869 400.291 105.565V109.388C400.331 110.912 399.97 112.424 399.235 113.811L407.753 117.997C409.095 118.744 410.213 119.753 411.015 120.941C411.817 122.129 412.281 123.463 412.369 124.834C412.369 127.359 410.305 128.378 407.753 127.108L352.143 99.6771C350.802 98.9262 349.687 97.9145 348.888 96.7241C348.088 95.5338 347.628 94.1984 347.543 92.8264C347.478 90.3149 349.526 89.3103 352.143 90.5521Z" fill="#F8F1FF"/>
<path d="M192.723 173.037L340.838 99.6436L346.768 102.579C347.576 103.036 348.249 103.649 348.731 104.369C349.213 105.089 349.492 105.896 349.544 106.726V200.507C349.492 201.336 349.214 202.144 348.732 202.864C348.25 203.584 347.577 204.197 346.768 204.653L204.216 275.282C203.354 275.651 202.403 275.843 201.44 275.843C200.476 275.843 199.526 275.651 198.664 275.282L195.532 273.729C194.723 273.272 194.049 272.659 193.565 271.939C193.081 271.219 192.8 270.412 192.745 269.582L192.723 173.037Z" fill="#9138E8"/>
<path opacity="0.05" d="M192.723 173.037L340.838 99.6436L346.768 102.579C347.576 103.036 348.249 103.649 348.731 104.369C349.213 105.089 349.492 105.896 349.544 106.726V200.507C349.492 201.336 349.214 202.144 348.732 202.864C348.25 203.584 347.577 204.197 346.768 204.653L204.216 275.282C203.354 275.651 202.403 275.843 201.44 275.843C200.476 275.843 199.526 275.651 198.664 275.282L195.532 273.729C194.723 273.272 194.049 272.659 193.565 271.939C193.081 271.219 192.8 270.412 192.745 269.582L192.723 173.037Z" fill="black"/>
<path d="M340.016 91.389L340.627 91.103L338.328 89.9592C338.129 89.863 337.921 89.7801 337.707 89.7114L272.522 68.9802C271.628 68.7229 270.662 68.7162 269.764 68.9613C268.865 69.2063 268.081 69.6903 267.524 70.3432L194.599 161.742C193.467 163.318 192.821 165.115 192.723 166.965V173.037L194.944 174.161L340.805 99.6338V93.5622C340.784 92.7887 340.511 92.0358 340.016 91.389Z" fill="#9138E8"/>
<path opacity="0.1" d="M270.535 70.7912C270.245 70.9863 269.99 71.2176 269.78 71.4775L196.855 162.876C196.256 163.684 195.799 164.565 195.5 165.488L193.279 164.363C193.444 163.893 193.64 163.431 193.868 162.981C193.968 162.79 194.068 162.609 194.179 162.428V162.342C194.294 162.151 194.424 161.966 194.567 161.789L267.515 70.3528C267.625 70.2174 267.747 70.0899 267.881 69.9715L268.27 69.6665L270.535 70.7912Z" fill="black"/>
<path opacity="0.35" d="M340.593 91.1028C340.396 90.9999 340.188 90.9137 339.972 90.8455L274.775 70.1047C274.059 69.9001 273.293 69.8557 272.551 69.9758C271.809 70.0959 271.114 70.3765 270.533 70.791L268.312 69.6663C268.898 69.2557 269.594 68.9777 270.337 68.8578C271.08 68.7379 271.846 68.7799 272.566 68.98L337.751 89.7112C337.964 89.7795 338.168 89.8657 338.361 89.9686L340.593 91.1028Z" fill="white"/>
<path d="M267.892 69.9715C268.01 69.8601 268.14 69.758 268.28 69.6665C268.138 69.7556 268.008 69.8579 267.892 69.9715Z" fill="#9138E8"/>
<path opacity="0.2" d="M194.156 162.391C194.156 162.391 194.156 162.323 194.156 162.294C194.156 162.265 194.179 162.362 194.156 162.391Z" fill="black"/>
<path opacity="0.2" d="M267.523 70.3434C267.63 70.2088 267.753 70.0842 267.89 69.9717C267.75 70.0816 267.627 70.2066 267.523 70.3434Z" fill="black"/>
<path d="M269.778 71.487L196.864 162.895C195.722 164.464 195.072 166.26 194.977 168.109V174.18L343.092 100.787V94.6869C343.037 93.8651 342.715 93.0729 342.164 92.3993C341.613 91.7257 340.854 91.1976 339.972 90.8743L274.787 70.1431C273.893 69.889 272.929 69.882 272.03 70.1231C271.132 70.3642 270.344 70.8413 269.778 71.487Z" fill="#9138E8"/>
<path d="M211.101 262.51L206.348 260.155C205.956 259.898 205.647 259.559 205.453 259.17C205.258 258.781 205.184 258.355 205.237 257.934V130.821C205.3 129.531 205.759 128.278 206.57 127.189L211.401 129.572C210.583 130.665 210.123 131.926 210.068 133.223V260.289C210.009 260.704 210.073 261.124 210.253 261.513C210.434 261.901 210.725 262.244 211.101 262.51Z" fill="#E0E0E0"/>
<path d="M214.068 127.151L333.044 68.2079C335.265 67.0832 337.12 67.9887 337.12 70.2286V197.304C337.045 198.52 336.638 199.704 335.929 200.759C335.221 201.814 334.233 202.71 333.044 203.375L214.068 262.309C211.847 263.425 209.992 262.519 209.992 260.279V133.223C210.069 132.007 210.478 130.824 211.186 129.77C211.894 128.715 212.881 127.818 214.068 127.151Z" fill="#F0F0F0"/>
<path d="M331.1 65.5678L335.764 67.8935C335.313 67.7489 334.826 67.7038 334.349 67.762C333.872 67.8203 333.419 67.9802 333.032 68.2271L214.067 127.161C212.926 127.751 211.978 128.581 211.313 129.572L206.482 127.19C207.153 126.2 208.094 125.366 209.225 124.759L328.202 65.7679C328.615 65.5068 329.104 65.3482 329.615 65.3096C330.126 65.2709 330.64 65.3536 331.1 65.5487V65.5678Z" fill="#FAFAFA"/>
<path d="M345.791 201.746C345.747 201.814 345.695 201.878 345.636 201.937L283.916 178.441C281.572 177.551 278.933 177.418 276.485 178.066C274.036 178.714 271.942 180.1 270.59 181.968L204.605 272.842L202.162 274.053C201.89 274.216 201.575 274.318 201.245 274.349C200.915 274.381 200.582 274.341 200.274 274.234L268.136 180.767C269.491 178.902 271.584 177.518 274.031 176.869C276.478 176.219 279.116 176.348 281.461 177.231L345.791 201.746Z" fill="#9138E8"/>
<path opacity="0.4" d="M264.494 190.232L264.65 190.117L204.584 272.852L202.141 274.062C201.867 274.223 201.552 274.323 201.223 274.355C200.894 274.387 200.561 274.348 200.253 274.243L262.073 189.012L264.494 190.232Z" fill="white"/>
<path opacity="0.4" d="M345.793 201.755C345.749 201.823 345.697 201.887 345.638 201.946L283.906 178.441C281.563 177.551 278.924 177.418 276.475 178.066C274.027 178.714 271.933 180.1 270.581 181.968L268.138 180.748C269.499 178.887 271.594 177.509 274.04 176.866C276.487 176.222 279.122 176.354 281.463 177.24L345.793 201.755Z" fill="white"/>
<path d="M349.5 106.115C349.367 105.429 348.945 105.238 348.39 105.562C348.115 105.738 347.875 105.95 347.679 106.191L347.368 106.563L286.503 179.346L277.408 190.222C276.823 190.856 276.047 191.34 275.165 191.624C274.282 191.908 273.326 191.98 272.4 191.833L264.549 190.231L204.583 177.993C204.18 177.922 203.765 177.922 203.362 177.993C203.205 178.02 203.052 178.062 202.906 178.117L204.561 177.297L262.306 189.088L270.179 190.632C271.106 190.781 272.062 190.71 272.945 190.426C273.828 190.142 274.603 189.656 275.187 189.021L284.282 178.155L345.492 105C345.678 104.782 345.912 104.598 346.18 104.457L340.916 101.854L343.137 100.758L346.802 102.569C347.504 102.976 348.105 103.499 348.569 104.108C349.032 104.717 349.349 105.399 349.5 106.115Z" fill="#9138E8"/>
<path opacity="0.4" d="M286.502 179.347L277.407 190.222C276.822 190.856 276.046 191.341 275.164 191.624C274.281 191.908 273.325 191.98 272.399 191.833L264.548 190.232L264.703 190.117L265.081 189.603L270.222 190.651C271.149 190.801 272.106 190.73 272.988 190.446C273.871 190.162 274.647 189.676 275.231 189.04L284.237 178.289L286.502 179.347Z" fill="white"/>
<path opacity="0.1" d="M346.758 102.569L343.093 100.758L340.872 101.854L346.169 104.476C345.902 104.618 345.668 104.802 345.481 105.019L284.282 178.174L284.193 178.279L286.414 179.337L347.357 106.563L347.668 106.191C347.865 105.95 348.104 105.738 348.379 105.562C348.923 105.238 349.345 105.429 349.489 106.115C349.334 105.397 349.012 104.713 348.543 104.104C348.073 103.495 347.466 102.973 346.758 102.569Z" fill="black"/>
<path d="M205.782 179.518L192.723 173.037V269.582C192.778 270.412 193.059 271.219 193.543 271.939C194.027 272.659 194.701 273.272 195.51 273.728L198.642 275.282C199.504 275.651 200.454 275.842 201.418 275.842C202.381 275.842 203.331 275.651 204.194 275.282L205.76 274.5L205.782 179.518Z" fill="#9138E8"/>
<path opacity="0.15" d="M205.782 179.518L192.723 173.037V269.582C192.778 270.412 193.059 271.219 193.543 271.939C194.027 272.659 194.701 273.272 195.51 273.728L198.642 275.282C199.504 275.651 200.454 275.842 201.418 275.842C202.381 275.842 203.331 275.651 204.194 275.282L205.76 274.5L205.782 179.518Z" fill="black"/>
<path d="M347.367 106.563V199.325C347.338 200.184 347.039 201.021 346.501 201.746C346.093 202.361 345.537 202.894 344.869 203.309L344.769 203.366L344.58 203.471L202.039 274.1C201.868 274.191 201.686 274.264 201.495 274.32C201.483 274.177 201.483 274.033 201.495 273.891V180.147C201.47 179.812 201.541 179.476 201.701 179.168C201.861 178.861 202.106 178.592 202.414 178.384C202.722 178.176 203.084 178.035 203.47 177.973C203.855 177.912 204.252 177.932 204.627 178.031L264.592 190.27L272.444 191.871C273.37 192.019 274.326 191.947 275.208 191.663C276.091 191.379 276.866 190.894 277.452 190.26L286.502 179.347L347.367 106.563Z" fill="#455A64"/>
<path d="M349.555 106.754V200.535C349.52 201.394 349.221 202.229 348.689 202.956C348.275 203.57 347.719 204.105 347.057 204.529L346.945 204.577C346.889 204.615 346.83 204.65 346.768 204.681L204.227 275.272C203.955 275.439 203.638 275.543 203.306 275.576C202.974 275.61 202.638 275.571 202.328 275.463C202.092 275.345 201.892 275.179 201.747 274.979C201.602 274.78 201.516 274.554 201.495 274.319C201.483 274.176 201.483 274.033 201.495 273.89V180.147C201.47 179.811 201.541 179.475 201.701 179.168C201.861 178.861 202.106 178.592 202.414 178.383C202.722 178.175 203.084 178.034 203.47 177.973C203.855 177.912 204.252 177.932 204.627 178.031L264.592 190.27L272.444 191.871C273.37 192.018 274.326 191.946 275.208 191.662C276.091 191.379 276.866 190.894 277.452 190.26L286.502 179.346L347.412 106.563L347.723 106.191C348.689 104.962 349.555 105.191 349.555 106.754Z" fill="#9138E8"/>
<path d="M346.769 204.644L346.946 204.539L347.057 204.491C347.72 204.067 348.276 203.532 348.69 202.918C349.208 202.204 349.502 201.386 349.545 200.545L286.503 179.347L328.701 213.594L346.769 204.644Z" fill="#9138E8"/>
<path opacity="0.2" d="M346.769 204.644L346.946 204.539L347.057 204.491C347.72 204.067 348.276 203.532 348.69 202.918C349.208 202.204 349.502 201.386 349.545 200.545L286.503 179.347L328.701 213.594L346.769 204.644Z" fill="black"/>
<path d="M201.439 273.9C201.398 274.205 201.458 274.515 201.611 274.792C201.764 275.07 202.005 275.306 202.305 275.473C202.615 275.581 202.951 275.62 203.283 275.586C203.615 275.553 203.932 275.448 204.204 275.282L253.276 250.967L264.481 190.241L201.439 272.337V273.9Z" fill="#9138E8"/>
<path opacity="0.15" d="M270.546 181.958L202.296 275.463C201.995 275.296 201.754 275.061 201.601 274.783C201.448 274.505 201.389 274.196 201.429 273.89V272.337L261.651 189.679L262.117 189.04L268.103 180.805L270.546 181.958Z" fill="black"/>
<path d="M348.69 202.918C348.276 203.532 347.721 204.067 347.058 204.491L346.947 204.538L204.228 275.272C203.956 275.439 203.639 275.543 203.307 275.577C202.975 275.61 202.639 275.571 202.329 275.463L270.579 181.929C271.948 180.053 274.058 178.663 276.524 178.014C278.99 177.364 281.645 177.499 284.005 178.393L348.69 202.918Z" fill="#9138E8"/>
<path d="M348.69 202.928C348.283 203.543 347.726 204.076 347.058 204.491L346.958 204.548L204.217 275.282C203.943 275.445 203.626 275.547 203.294 275.579C202.963 275.61 202.628 275.571 202.318 275.463L204.217 272.871L344.482 203.347L344.593 203.29C345.184 202.919 345.685 202.453 346.07 201.917L348.69 202.928Z" fill="#9138E8"/>
<path opacity="0.15" d="M193.223 164.363L195.444 165.488C195.129 166.333 194.954 167.212 194.922 168.099V174.161L192.701 173.037V166.965C192.734 166.081 192.909 165.205 193.223 164.363Z" fill="black"/>
<path d="M206.637 177.688L204.549 177.259L202.894 178.079L200.607 176.945L194.977 174.162L197.164 173.046L206.637 177.688Z" fill="#9138E8"/>
<path opacity="0.1" d="M206.637 177.688L197.176 173.056L194.955 174.171L200.585 176.954L202.873 178.088C203.006 178.032 203.148 177.993 203.295 177.974C203.698 177.903 204.113 177.903 204.516 177.974L209.125 178.927L261.65 189.679L262.117 189.04L206.637 177.688Z" fill="black"/>
<path d="M267.956 155.365C266.315 155.368 264.717 154.912 263.404 154.066L263.323 154.014L246.179 142.739C245.385 142.216 244.719 141.564 244.218 140.82C243.718 140.077 243.392 139.255 243.261 138.404C243.13 137.552 243.195 136.686 243.453 135.856C243.712 135.026 244.158 134.248 244.766 133.566C245.374 132.884 246.133 132.311 246.999 131.881C247.865 131.451 248.821 131.172 249.812 131.059C250.804 130.946 251.811 131.002 252.778 131.224C253.744 131.446 254.65 131.829 255.444 132.352L266.548 139.666L292.789 110.269C293.397 109.587 294.156 109.015 295.022 108.585C295.888 108.155 296.844 107.876 297.836 107.763C298.827 107.651 299.835 107.707 300.801 107.929C301.768 108.151 302.673 108.535 303.467 109.058L303.304 109.248L303.471 109.06C305.072 110.118 306.12 111.677 306.384 113.397C306.648 115.116 306.108 116.856 304.881 118.234L274.016 152.812C273.302 153.608 272.384 154.253 271.333 154.696C270.282 155.139 269.127 155.368 267.956 155.365Z" fill="#9138E8"/>
</svg>
