<svg width="287" height="190" viewBox="0 0 287 190" fill="none" xmlns="http://www.w3.org/2000/svg">
<g clip-path="url(#clip0_104_29034)">
<path d="M145.052 53.4014C142.499 49.1817 139.474 44.6764 134.736 43.2985C129.25 41.7029 123.613 44.8727 118.833 48.0006C104.535 57.3551 90.7667 67.4928 77.5898 78.3671L77.6043 78.5309C87.8629 77.824 98.1216 77.117 108.38 76.41C115.792 75.8992 123.459 75.318 130.009 71.8141C132.494 70.4845 134.917 68.7084 137.734 68.5846C141.233 68.4309 144.284 70.8731 146.682 73.4247C160.865 88.5179 164.97 111.599 180.882 124.86C170.848 100.131 158.867 76.2367 145.052 53.4014Z" fill="#F2F2F2"/>
<path d="M232.235 181.42C230.667 179.44 230.026 178.977 228.479 176.979C215.881 160.697 204.041 143.866 192.957 126.484C185.428 114.679 178.273 102.647 171.491 90.3883C168.263 84.5604 165.122 78.6868 162.071 72.7675C159.703 68.1778 157.387 63.5607 155.125 58.9161C154.478 57.5895 153.849 56.2568 153.224 54.9211C151.75 51.78 150.303 48.6236 148.75 45.5252C146.98 41.9937 144.826 38.2915 141.575 35.9188C140.096 34.7948 138.327 34.1146 136.476 33.9579C133.83 33.7872 131.389 34.8789 129.094 36.0713C112.303 44.8207 96.5841 55.7903 82.3663 68.2724C68.112 80.7825 55.371 94.916 44.403 110.385C44.0675 110.863 43.274 110.406 43.6127 109.924C44.9463 108.04 46.3063 106.175 47.6928 104.331C64.9327 81.4181 86.0715 61.7141 110.143 46.1198C114.193 43.4972 118.318 40.9975 122.521 38.6208C124.638 37.4223 126.765 36.239 128.929 35.129C131.05 34.0403 133.302 33.0613 135.725 33.0247C143.971 32.8967 148.24 42.2285 151.173 48.5077C152.095 50.4839 153.027 52.4539 153.971 54.4179C157.539 61.8742 161.244 69.2625 165.086 76.5826C167.457 81.1022 169.88 85.5953 172.355 90.062C180.057 103.971 188.244 117.599 196.915 130.945C208.402 148.624 219.797 164.241 232.882 180.773C233.242 181.231 232.599 181.883 232.235 181.42Z" fill="#E4E4E4"/>
<path d="M81.5508 63.6644C81.0717 63.1307 80.5956 62.5971 80.1134 62.0634C76.311 57.861 72.231 53.7074 67.0094 51.2982C64.5198 50.1132 61.8019 49.4836 59.0445 49.4531C56.1942 49.4623 53.4081 50.2095 50.7745 51.2555C49.5294 51.7526 48.3117 52.3168 47.1124 52.9175C45.7421 53.6067 44.3963 54.3417 43.0567 55.0828C40.542 56.4734 38.06 57.925 35.6106 59.4376C30.737 62.4476 26.0159 65.6873 21.4476 69.1568C19.0794 70.9561 16.7601 72.8143 14.4896 74.7315C12.3779 76.5125 10.3088 78.3413 8.2825 80.2178C7.84918 80.6173 7.20218 79.9708 7.6355 79.5713C8.16955 79.0742 8.70971 78.5802 9.24987 78.0922C10.7757 76.7138 12.326 75.3618 13.9007 74.0362C16.7723 71.6148 19.7182 69.2869 22.7384 67.0526C27.4351 63.576 32.2934 60.3352 37.3133 57.3303C39.8219 55.8299 42.365 54.3925 44.9426 53.0182C45.7208 52.6034 46.5082 52.1978 47.3047 51.8136C49.1119 50.9026 50.9897 50.1387 52.9198 49.5294C55.6538 48.6455 58.5465 48.3615 61.4004 48.6968C64.156 49.0974 66.8109 50.0152 69.2251 51.4019C74.3519 54.2655 78.3282 58.6935 82.1978 63.0149C82.5885 63.454 81.9445 64.1036 81.5508 63.6644Z" fill="#E4E4E4"/>
<path d="M186.6 107.212L198.885 102.722L204.984 100.492C206.971 99.7664 208.953 98.9398 211.006 98.4199C212.791 97.9105 214.686 97.9346 216.457 98.4893C218.036 99.0735 219.482 99.9691 220.708 101.123C221.961 102.276 223.126 103.519 224.195 104.844C225.523 106.439 226.832 108.051 228.146 109.657C233.57 116.286 238.959 122.944 244.312 129.63C249.665 136.317 254.982 143.032 260.264 149.775C265.558 156.535 270.817 163.323 276.038 170.139C276.678 170.974 277.317 171.81 277.955 172.646C278.308 173.108 279.104 172.652 278.746 172.184C273.486 165.299 268.189 158.442 262.856 151.614C257.509 144.769 252.125 137.953 246.705 131.166C241.285 124.38 235.828 117.623 230.334 110.895C228.965 109.219 227.594 107.544 226.221 105.872C225.063 104.461 223.918 103.035 222.647 101.722C220.315 99.3121 217.402 97.1821 213.914 97.1243C211.864 97.0903 209.879 97.7406 207.974 98.4293C205.92 99.1718 203.871 99.9282 201.82 100.678L189.449 105.2L186.356 106.33C185.807 106.531 186.044 107.415 186.6 107.212Z" fill="#E4E4E4"/>
<path d="M65.393 56.5862C59.15 53.3797 51.1549 54.0077 45.418 58.0137C56.3607 59.9003 67.1837 62.4246 77.8316 65.5737C73.41 62.9843 69.9512 58.9273 65.393 56.5862Z" fill="#F2F2F2"/>
<path d="M45.3562 58.0024L44.1543 58.9787C44.5608 58.637 44.9835 58.3166 45.4176 58.0135C45.3971 58.01 45.3767 58.006 45.3562 58.0024Z" fill="#F2F2F2"/>
<path d="M220.244 107.257C219.035 105.786 217.727 104.246 215.918 103.648L214.229 103.715C227.085 126.416 244.447 146.251 265.251 162.004C250.248 143.755 235.246 125.506 220.244 107.257Z" fill="#F2F2F2"/>
<path d="M115.23 95.1218C116.011 97.9592 117.772 100.429 120.2 102.094C121.139 102.733 122.25 103.346 122.571 104.434C122.74 105.128 122.636 105.86 122.28 106.48C121.925 107.092 121.493 107.655 120.995 108.157L120.949 108.327C118.619 106.948 116.403 105.203 115.116 102.821C113.829 100.44 113.65 97.3196 115.23 95.1218Z" fill="#F2F2F2"/>
<path d="M192.792 162.653C193.574 165.49 195.334 167.96 197.763 169.625C198.701 170.264 199.812 170.876 200.133 171.965C200.302 172.659 200.198 173.391 199.842 174.011C199.487 174.622 199.055 175.186 198.557 175.688L198.512 175.858C196.182 174.479 193.966 172.733 192.679 170.352C191.392 167.971 191.212 164.85 192.792 162.653Z" fill="#F2F2F2"/>
<path d="M37.9992 157.995C38.7808 160.833 40.5414 163.302 42.9697 164.968C43.9085 165.606 45.0192 166.219 45.3403 167.308C45.5093 168.002 45.4052 168.734 45.0495 169.354C44.6945 169.965 44.2625 170.529 43.7642 171.031L43.7187 171.201C41.389 169.821 39.1726 168.076 37.8857 165.695C36.5988 163.314 36.4191 160.193 37.9992 157.995Z" fill="#F2F2F2"/>
<path d="M216.128 33.9317C225.504 33.9317 233.105 26.3358 233.105 16.9658C233.105 7.59586 225.504 0 216.128 0C206.751 0 199.15 7.59586 199.15 16.9658C199.15 26.3358 206.751 33.9317 216.128 33.9317Z" fill="#9138E8"/>
<path d="M246.766 3.94882C238.538 2.83741 229.144 7.28167 227.012 15.3005C226.474 13.8747 225.497 12.6566 224.222 11.8221C222.946 10.9877 221.438 10.58 219.915 10.6581C218.393 10.7362 216.935 11.2959 215.751 12.2565C214.568 13.2171 213.721 14.5287 213.332 16.002L214.274 16.6762C231.906 20.4866 250.159 20.4041 267.756 16.4345C262.032 10.4236 254.994 5.06021 246.766 3.94882Z" fill="#F0F0F0"/>
<path d="M211.479 26.5699C203.251 25.4585 193.857 29.9028 191.725 37.9216C191.187 36.4958 190.21 35.2777 188.934 34.4432C187.659 33.6088 186.151 33.2011 184.628 33.2792C183.106 33.3573 181.647 33.917 180.464 34.8776C179.281 35.8382 178.433 37.1498 178.045 38.623L178.987 39.2972C196.619 43.1077 214.871 43.0252 232.469 39.0556C226.745 33.0447 219.707 27.6813 211.479 26.5699Z" fill="#F0F0F0"/>
<path d="M283.293 30.8474C283.258 30.8475 283.225 30.8422 283.192 30.8318C195.174 3.01509 117.598 6.65262 68.019 14.6024C61.2718 15.6839 54.5066 16.933 47.9112 18.3153C46.2275 18.6678 44.4806 19.0456 42.7193 19.439C40.6158 19.9072 38.5403 20.3893 36.5501 20.8714C35.6906 21.0748 34.8478 21.2797 34.0219 21.4864C32.7708 21.795 31.5013 22.1166 30.1405 22.47C28.6199 22.8618 27.0749 23.2728 25.5475 23.6915C25.5419 23.6935 25.5362 23.6951 25.5304 23.6964C23.8052 24.1671 22.0892 24.6519 20.4297 25.1356C19.5314 25.3948 18.6641 25.6505 17.8333 25.9029C17.7405 25.9286 17.6583 25.9533 17.5749 25.9786L17.3964 26.0329C17.293 26.0644 17.191 26.0952 17.0889 26.1245L17.0824 26.1264L16.8124 26.2106C16.4902 26.3081 16.1759 26.4032 15.8667 26.4981C7.69598 29.0152 3.20425 30.8058 3.15987 30.8234C3.1193 30.8396 3.07591 30.8477 3.0322 30.8472C2.98849 30.8467 2.9453 30.8376 2.90511 30.8204C2.86491 30.8033 2.8285 30.7783 2.79794 30.7471C2.76738 30.7159 2.74329 30.6789 2.72702 30.6384C2.71076 30.5978 2.70265 30.5544 2.70315 30.5108C2.70365 30.4671 2.71275 30.4239 2.72995 30.3838C2.74714 30.3436 2.77208 30.3072 2.80334 30.2767C2.8346 30.2461 2.87158 30.222 2.91216 30.2058C2.95686 30.1882 7.47054 28.3885 15.671 25.862C15.9813 25.7668 16.2965 25.6716 16.6196 25.5738L16.8706 25.4959C16.8792 25.4926 16.8878 25.49 16.8966 25.4874C16.9982 25.4585 17.0996 25.4277 17.2027 25.3965L17.3815 25.3422C17.4705 25.3153 17.5583 25.2886 17.6482 25.2639C18.4733 25.0131 19.3435 24.7568 20.244 24.4966C21.9043 24.0125 23.622 23.5282 25.3486 23.0568C25.3539 23.0548 25.3594 23.0535 25.3648 23.0519C26.8976 22.6319 28.4483 22.2189 29.9737 21.8259C31.3367 21.4721 32.6086 21.1498 33.8618 20.8405C34.6912 20.6342 35.5356 20.4288 36.3949 20.2243C38.3873 19.7415 40.4671 19.2588 42.5743 18.7897C44.3384 18.3959 46.0882 18.0171 47.7747 17.6643C54.3803 16.2797 61.1561 15.0287 67.9135 13.9456C117.564 5.98438 195.251 2.34099 283.393 30.1976C283.468 30.2216 283.533 30.2718 283.575 30.3392C283.617 30.4067 283.634 30.4869 283.621 30.5654C283.609 30.6439 283.57 30.7155 283.509 30.7672C283.449 30.8189 283.372 30.8474 283.293 30.8474Z" fill="#CCCCCC"/>
<path d="M87.5464 139.665C87.4311 139.328 87.2371 139.024 86.9805 138.777C86.8858 138.689 86.7833 138.61 86.6743 138.541C85.8054 137.962 84.5071 137.832 83.6816 138.541C83.5984 138.613 83.5216 138.692 83.4519 138.777C83.2055 139.08 82.9525 139.376 82.6929 139.665C82.2668 140.151 81.8307 140.62 81.3747 141.076C81.2448 141.202 81.115 141.332 80.9818 141.458C80.9053 141.535 80.8287 141.608 80.7522 141.681C80.4592 141.961 80.1596 142.23 79.8567 142.496C79.6969 142.639 79.5371 142.779 79.374 142.915C79.131 143.118 78.888 143.321 78.6416 143.518C78.6183 143.534 78.595 143.551 78.5717 143.571C78.5651 143.574 78.5617 143.581 78.5551 143.584C78.5518 143.584 78.5484 143.584 78.5451 143.591C78.5361 143.594 78.5281 143.6 78.5218 143.607C78.4486 143.657 78.3986 143.69 78.362 143.72C78.3753 143.714 78.3886 143.704 78.402 143.697C78.342 143.744 78.2788 143.79 78.2189 143.837C77.6363 144.266 77.0404 144.679 76.4312 145.064C74.924 146.028 73.3409 146.868 71.6976 147.576C71.5877 147.619 71.4745 147.666 71.3613 147.709C67.0586 149.471 62.3911 150.158 57.7628 149.712C57.2901 149.675 56.8174 149.625 56.3447 149.562C55.7988 149.482 55.2562 149.386 54.7169 149.276C52.6638 148.867 50.655 148.261 48.7182 147.466C46.2955 146.358 43.9912 145.007 41.8407 143.434C41.5078 143.198 41.1716 142.962 40.8354 142.732C41.2182 141.794 41.5944 140.856 41.9605 139.911C42.1436 139.456 42.3201 139 42.4932 138.541C43.8547 135.005 45.133 131.435 46.358 127.852C47.5964 124.223 48.7648 120.573 49.8633 116.901C49.9765 116.529 50.0864 116.156 50.1929 115.783C50.7688 113.844 51.3214 111.9 51.8507 109.952C51.9006 109.762 51.9539 109.576 52.0005 109.386C52.1536 108.827 52.3034 108.269 52.4499 107.71C52.7828 106.449 52.0304 104.942 50.7055 104.639C50.0676 104.476 49.3912 104.566 48.8186 104.891C48.2461 105.216 47.8222 105.751 47.6363 106.382C47.4932 106.921 47.35 107.457 47.2036 107.996C46.5012 110.6 45.7621 113.196 44.9865 115.783C44.8733 116.156 44.7601 116.529 44.647 116.901C42.9359 122.536 41.0573 128.115 39.0111 133.637C38.7648 134.306 38.5151 134.973 38.2621 135.637C38.139 135.963 38.0158 136.289 37.8893 136.615C37.6463 137.257 37.3966 137.899 37.147 138.541C37.0038 138.917 36.8573 139.293 36.7109 139.665C36.6143 139.901 36.5211 140.138 36.4279 140.371C35.4788 140.03 34.4954 139.793 33.4952 139.665L33.3354 139.645C32.5599 139.552 31.7756 139.559 31.0018 139.665C29.8437 139.8 28.7294 140.188 27.7378 140.801C26.7461 141.413 25.9012 142.236 25.2628 143.211C23.6749 145.71 23.6949 149.283 25.9219 151.405C28.2155 153.591 31.6876 153.574 34.3873 152.207C35.818 151.433 37.0243 150.303 37.8893 148.927C38.2207 148.428 38.5252 147.911 38.8014 147.38C38.8713 147.426 38.9412 147.473 39.0111 147.523C39.2775 147.709 39.5438 147.899 39.8068 148.085C41.339 149.194 42.9538 150.185 44.637 151.049C48.2561 152.847 52.1519 154.024 56.1616 154.532C56.2515 154.542 56.338 154.555 56.4279 154.565C56.8707 154.622 57.3167 154.665 57.7628 154.702C64.1617 155.184 70.5684 153.875 76.2648 150.923C76.7475 150.673 77.2257 150.411 77.6996 150.138C78.4352 149.712 79.1543 149.259 79.8567 148.78C80.2395 148.521 80.6123 148.258 80.9818 147.982C82.5965 146.793 84.1017 145.463 85.4792 144.007C86.0018 143.458 86.5022 142.891 86.9805 142.307C87.4328 141.829 87.6934 141.201 87.7129 140.543C87.7103 140.243 87.6539 139.946 87.5464 139.665ZM32.4233 147.589C32.4932 147.539 32.5631 147.486 32.6297 147.433C32.6097 147.483 32.5131 147.539 32.4233 147.589ZM33.4918 146.515C33.4153 146.601 33.3454 146.688 33.2688 146.774C33.0359 147.035 32.7856 147.279 32.5198 147.506C32.4832 147.539 32.4432 147.573 32.4033 147.603C32.4029 147.603 32.4024 147.603 32.402 147.603C32.4016 147.603 32.4012 147.603 32.4009 147.604C32.4006 147.604 32.4004 147.604 32.4002 147.605C32.4 147.605 32.4 147.605 32.4 147.606C32.3519 147.627 32.3052 147.652 32.2601 147.679C32.117 147.766 31.9705 147.845 31.8207 147.919C31.5274 148.027 31.2257 148.11 30.9186 148.168C30.6826 148.185 30.4458 148.188 30.2096 148.175H30.2029C30.0398 148.139 29.8787 148.094 29.7202 148.042C29.6403 148.002 29.5637 147.955 29.4872 147.909C29.4572 147.882 29.4306 147.855 29.4139 147.839C29.3814 147.809 29.3514 147.777 29.3241 147.742C29.3241 147.742 29.324 147.741 29.3238 147.741C29.3237 147.741 29.3234 147.74 29.3231 147.74C29.3228 147.74 29.3224 147.739 29.322 147.739C29.3216 147.739 29.3212 147.739 29.3208 147.739C29.2841 147.672 29.2442 147.606 29.2076 147.539C29.2057 147.538 29.2045 147.535 29.2042 147.533C29.1776 147.45 29.1543 147.363 29.1343 147.277C29.1271 147.125 29.1282 146.973 29.1377 146.821C29.1823 146.608 29.2424 146.399 29.3174 146.195C29.3848 146.051 29.4615 145.911 29.5471 145.776C29.5538 145.763 29.5871 145.71 29.6237 145.65C29.627 145.647 29.627 145.647 29.627 145.643C29.6769 145.587 29.7269 145.527 29.7801 145.474C29.87 145.374 29.9666 145.287 30.0631 145.197C30.2508 145.075 30.4453 144.962 30.6457 144.861C30.9634 144.749 31.2896 144.661 31.621 144.599C32.1098 144.56 32.6011 144.564 33.0891 144.612C33.5513 144.692 34.0073 144.804 34.4539 144.948C34.1832 145.473 33.8751 145.978 33.5318 146.458C33.5185 146.478 33.5052 146.498 33.4918 146.515ZM29.7901 145.42C29.7608 145.467 29.7262 145.511 29.6869 145.55C29.7133 145.501 29.7483 145.457 29.7901 145.42Z" fill="#3F3D56"/>
<path d="M77.5393 105.691C77.5094 106.735 77.4794 107.78 77.4494 108.824C77.3862 111.143 77.3207 113.463 77.253 115.784C77.1831 118.395 77.1099 121.005 77.0333 123.614C76.9967 124.962 76.959 126.309 76.9201 127.656C76.8169 131.286 76.7148 134.914 76.6139 138.541C76.6039 138.917 76.5906 139.29 76.5806 139.665C76.5306 141.465 76.4807 143.265 76.4308 145.065C76.3742 147.017 76.3187 148.97 76.2643 150.923C76.2244 152.386 76.1833 153.851 76.1412 155.317C75.8416 165.939 75.542 176.561 75.2424 187.183C75.2297 187.841 74.9626 188.468 74.4971 188.933C74.0316 189.398 73.4039 189.665 72.7457 189.678C72.0852 189.673 71.4532 189.408 70.9862 188.941C70.5191 188.475 70.2543 187.843 70.249 187.183C70.4155 181.208 70.5841 175.234 70.755 169.259C70.9048 163.857 71.0568 158.454 71.2111 153.052C71.261 151.272 71.3109 149.491 71.3609 147.709C71.4374 145.028 71.5129 142.347 71.5872 139.665C71.5972 139.29 71.6105 138.917 71.6205 138.541C71.6272 138.212 71.6372 137.886 71.6472 137.556C71.7936 132.35 71.9401 127.143 72.0866 121.934C72.1465 119.885 72.2042 117.835 72.2597 115.784C72.3262 113.445 72.3928 111.107 72.4594 108.771C72.4894 107.743 72.516 106.718 72.546 105.691C72.5586 105.033 72.8257 104.405 73.2912 103.94C73.7567 103.475 74.3844 103.208 75.0426 103.196C75.7031 103.201 76.3351 103.465 76.8022 103.932C77.2692 104.399 77.534 105.03 77.5393 105.691Z" fill="#3F3D56"/>
<path d="M214.499 106.383C211.881 116.289 208.752 126.054 205.125 135.638C204.124 138.281 203.1 140.919 202.005 143.526L202.257 142.93C201.768 144.171 201.144 145.355 200.396 146.46C200.345 146.531 200.294 146.602 200.241 146.672C200.5 146.341 200.549 146.276 200.388 146.476C200.304 146.576 200.22 146.676 200.133 146.774C199.9 147.034 199.65 147.279 199.384 147.506C199.317 147.564 199.249 147.62 199.18 147.674L199.493 147.432C199.456 147.517 199.202 147.63 199.123 147.679C198.866 147.833 198.599 147.969 198.322 148.084L198.919 147.833C198.466 148.015 197.993 148.145 197.51 148.219L198.174 148.13C197.7 148.195 197.219 148.2 196.743 148.145L197.407 148.234C197.018 148.181 196.637 148.078 196.273 147.929L196.87 148.181C196.676 148.096 196.489 147.996 196.311 147.882C196.221 147.824 195.943 147.613 196.306 147.891C196.683 148.179 196.355 147.915 196.277 147.839C196.212 147.775 196.154 147.706 196.091 147.641C195.797 147.34 196.422 148.159 196.223 147.807C196.116 147.63 196.018 147.449 195.93 147.262L196.182 147.858C196.067 147.575 195.986 147.279 195.94 146.976L196.029 147.639C195.981 147.263 195.981 146.883 196.028 146.507L195.939 147.17C196 146.75 196.111 146.339 196.27 145.946L196.018 146.542C196.129 146.277 196.26 146.022 196.41 145.777C196.479 145.651 196.561 145.531 196.653 145.421C196.669 145.426 196.23 145.924 196.463 145.673C196.524 145.607 196.581 145.538 196.643 145.472C196.741 145.368 196.847 145.272 196.951 145.174C197.298 144.843 196.464 145.495 196.865 145.233C197.156 145.042 197.462 144.875 197.781 144.734L197.184 144.986C197.717 144.767 198.276 144.617 198.847 144.54L198.183 144.629C198.898 144.547 199.621 144.556 200.334 144.655L199.67 144.566C200.573 144.702 201.455 144.951 202.297 145.304L201.701 145.053C203.495 145.822 205.084 146.965 206.67 148.086C208.202 149.195 209.817 150.185 211.499 151.049C215.119 152.847 219.015 154.025 223.025 154.533C228.775 155.237 234.611 154.486 239.996 152.35C245.381 150.214 250.143 146.761 253.845 142.307C254.297 141.828 254.557 141.2 254.577 140.543C254.572 139.882 254.31 139.249 253.845 138.779C252.929 137.938 251.199 137.701 250.315 138.779C249.476 139.801 248.575 140.771 247.616 141.682C247.168 142.106 246.709 142.517 246.237 142.916C245.968 143.143 245.695 143.366 245.418 143.585C245.287 143.688 244.879 143.963 245.505 143.519C245.362 143.621 245.224 143.732 245.082 143.837C242.986 145.381 240.714 146.673 238.314 147.684L238.91 147.432C236.335 148.512 233.63 149.253 230.864 149.635L231.528 149.546C228.682 149.92 225.799 149.916 222.955 149.534L223.618 149.623C220.774 149.232 217.993 148.475 215.344 147.371L215.94 147.622C213.384 146.492 210.958 145.087 208.704 143.434C207.532 142.566 206.295 141.788 205.005 141.107C203.502 140.34 201.875 139.845 200.199 139.647C197.057 139.277 193.855 140.5 192.127 143.213C190.538 145.71 190.558 149.282 192.785 151.405C195.077 153.592 198.55 153.573 201.252 152.205C203.854 150.888 205.417 148.152 206.516 145.571C208.99 139.765 211.18 133.824 213.221 127.853C215.239 121.945 217.07 115.978 218.713 109.951C218.916 109.205 219.117 108.457 219.314 107.709C219.648 106.449 218.895 104.942 217.571 104.64C216.933 104.476 216.256 104.566 215.683 104.891C215.11 105.216 214.685 105.751 214.499 106.383Z" fill="#3F3D56"/>
<path d="M239.41 105.69L238.512 137.557L237.618 169.258L237.112 187.183C237.118 187.843 237.383 188.474 237.85 188.941C238.317 189.408 238.949 189.672 239.609 189.678C240.267 189.665 240.895 189.398 241.36 188.933C241.826 188.468 242.093 187.841 242.106 187.183L243.004 155.316L243.898 123.615L244.404 105.69C244.398 105.03 244.133 104.399 243.666 103.932C243.199 103.466 242.568 103.201 241.907 103.195C241.249 103.208 240.621 103.475 240.156 103.94C239.69 104.405 239.423 105.033 239.41 105.69Z" fill="#3F3D56"/>
<path opacity="0.2" d="M152.992 178.286H153.767V143.01H171.852V142.237H153.767V127.352H167.734C167.529 127.092 167.318 126.835 167.102 126.581H153.767V116.75C153.511 116.641 153.252 116.536 152.992 116.436V126.581H137.795V113.985C137.534 113.997 137.278 114.015 137.019 114.037V126.581H124.896V117.183C124.635 117.299 124.379 117.42 124.124 117.547V126.581H113.933V127.352H124.124V142.237H113.933V143.01H124.124V178.286H124.896V143.01C126.488 143.009 128.064 143.323 129.536 143.931C131.007 144.54 132.343 145.433 133.469 146.558C134.595 147.683 135.488 149.019 136.097 150.489C136.706 151.959 137.02 153.534 137.019 155.125V178.286H137.795V143.01H152.992V178.286ZM124.896 142.237V127.352H137.019V142.237H124.896ZM137.795 142.237V127.352H138.099C140.055 127.352 141.991 127.737 143.798 128.486C145.605 129.234 147.247 130.33 148.63 131.712C150.013 133.094 151.11 134.735 151.858 136.541C152.607 138.347 152.992 140.282 152.992 142.237H137.795Z" fill="black"/>
<path d="M148.259 167.709C147.283 172.06 144.945 175.987 141.585 178.92C141.338 179.133 141.092 179.339 140.836 179.542C140.213 179.598 139.595 179.656 138.981 179.715C138.472 179.761 137.969 179.811 137.47 179.858L137.38 179.868L137.317 179.322L137.064 177.113C136.083 175.512 135.474 173.711 135.284 171.843C135.094 169.974 135.327 168.088 135.965 166.322C136.844 163.953 138.435 161.861 140 159.785C142.161 156.917 144.261 154.083 144.338 150.587C145.401 151.946 146.285 153.436 146.967 155.021C146.323 155.324 145.744 155.75 145.263 156.275C145.127 156.425 144.99 156.634 145.083 156.814C145.163 156.967 145.363 157.004 145.536 157.024C145.952 157.067 146.372 157.11 146.788 157.153C147.121 157.19 147.453 157.223 147.786 157.26C148.189 158.581 148.462 159.938 148.602 161.312C148.826 163.449 148.711 165.608 148.259 167.709Z" fill="#3F3D56"/>
<path d="M159.311 158.99C157.347 160.417 156.199 162.469 155.306 164.732C154.392 165.024 153.57 165.549 152.92 166.255C152.783 166.405 152.647 166.614 152.74 166.794C152.82 166.947 153.02 166.984 153.193 167.004C153.609 167.047 154.028 167.09 154.444 167.133C153.552 169.808 152.733 172.576 151.155 174.835C150.106 176.326 148.738 177.565 147.151 178.464C146.718 178.71 146.271 178.931 145.812 179.126C144.121 179.256 142.462 179.394 140.836 179.542C140.213 179.598 139.595 179.656 138.982 179.715C138.472 179.761 137.97 179.811 137.47 179.858C137.467 179.675 137.467 179.492 137.47 179.309C137.576 174.435 139.37 169.748 142.547 166.049C142.697 165.876 142.85 165.706 143.006 165.537C144.616 163.819 146.509 162.39 148.602 161.312C151.901 159.598 155.598 158.796 159.311 158.99Z" fill="#9138E8"/>
<path d="M139.558 178.008L139.175 179.139L138.982 179.715C138.473 179.761 137.97 179.811 137.471 179.858L137.381 179.868C136.828 179.924 136.279 179.981 135.73 180.037C135.586 179.871 135.443 179.701 135.303 179.528C131.829 175.324 130.161 169.915 130.664 164.485C131.168 159.055 133.801 154.045 137.99 150.55C137.55 152.849 138.063 155.051 138.905 157.237C138.815 157.273 138.729 157.31 138.646 157.35C138.001 157.653 137.422 158.079 136.941 158.604C136.805 158.753 136.668 158.963 136.761 159.143C136.841 159.296 137.041 159.332 137.214 159.352C137.63 159.396 138.05 159.439 138.466 159.482C138.799 159.519 139.132 159.552 139.465 159.588C139.621 159.605 139.777 159.622 139.934 159.638C139.957 159.688 139.977 159.735 140.001 159.785C140.949 161.841 141.971 163.906 142.547 166.049C142.692 166.586 142.805 167.132 142.887 167.682C143.143 169.543 142.977 171.437 142.401 173.225C141.824 175.012 140.853 176.647 139.558 178.008Z" fill="#9138E8"/>
<path d="M173.065 129.759C170.2 124.173 165.76 119.473 160.538 116.019C155.299 112.57 149.288 110.469 143.04 109.904C142.221 109.83 141.4 109.786 140.577 109.774C139.605 109.759 124.976 113.976 120.076 117.419C115.178 120.82 111.149 125.324 108.314 130.568C105.483 135.841 104.091 141.765 104.277 147.745C104.52 153.761 106.198 159.632 109.172 164.869C112.105 170.089 116.269 174.513 121.303 177.758C126.409 181.014 131.538 189.646 137.567 189.951C143.64 190.258 150.567 182.115 156.107 179.643C161.647 177.15 166.436 173.249 169.997 168.33C173.458 163.51 175.696 157.922 176.521 152.047C177.378 146.032 176.979 139.828 174.923 134.078C174.395 132.601 173.775 131.158 173.065 129.759C172.473 128.593 170.736 128.163 169.649 128.864C169.089 129.208 168.684 129.756 168.517 130.391C168.35 131.027 168.435 131.703 168.754 132.277C169.102 132.962 169.425 133.658 169.724 134.366L169.472 133.77C170.604 136.489 171.374 139.346 171.762 142.265L171.672 141.602C172.085 144.77 172.077 147.978 171.65 151.144L171.74 150.48C171.308 153.646 170.463 156.741 169.225 159.687L169.476 159.091C168.84 160.594 168.098 162.05 167.256 163.448C166.829 164.154 166.376 164.844 165.897 165.518C165.687 165.813 165.47 166.104 165.252 166.393C164.967 166.771 165.64 165.9 165.346 166.27C165.295 166.333 165.246 166.397 165.195 166.459C165.044 166.648 164.891 166.835 164.735 167.021C163.697 168.258 162.565 169.413 161.348 170.475C161.044 170.74 160.736 170.998 160.423 171.251C160.267 171.376 160.113 171.508 159.95 171.625C159.956 171.62 160.476 171.226 160.168 171.455C160.071 171.527 159.976 171.6 159.879 171.672C159.233 172.15 158.57 172.603 157.89 173.033C156.324 174.019 154.682 174.877 152.978 175.599L153.574 175.347C150.636 176.584 147.547 177.428 144.388 177.859L145.051 177.77C141.894 178.197 138.693 178.202 135.534 177.787L136.198 177.876C133.327 177.491 130.518 176.732 127.844 175.619L128.441 175.871C126.891 175.217 125.398 174.439 123.974 173.545C123.27 173.102 122.584 172.631 121.916 172.132C121.821 172.061 121.726 171.989 121.631 171.917C121.327 171.688 121.85 172.087 121.854 172.09C121.677 171.963 121.507 171.827 121.343 171.682C121.021 171.42 120.703 171.151 120.391 170.877C119.141 169.776 117.973 168.586 116.898 167.314C116.629 166.996 116.365 166.673 116.108 166.346C115.996 166.204 115.793 165.917 116.242 166.522C116.183 166.442 116.122 166.364 116.062 166.285C115.918 166.095 115.777 165.903 115.637 165.71C115.148 165.034 114.684 164.341 114.243 163.632C113.248 162.027 112.379 160.346 111.645 158.606L111.896 159.202C110.695 156.346 109.874 153.344 109.453 150.275L109.542 150.938C109.163 148.108 109.157 145.241 109.526 142.41L109.437 143.073C109.815 140.331 110.553 137.651 111.632 135.103L111.38 135.699C112.059 134.103 112.86 132.562 113.776 131.089C114.234 130.352 114.72 129.633 115.233 128.932C115.349 128.773 115.467 128.614 115.587 128.457C115.694 128.315 115.991 127.96 115.485 128.586C115.535 128.525 115.582 128.462 115.631 128.4C115.913 128.043 116.201 127.692 116.497 127.347C117.614 126.039 118.825 124.814 120.119 123.681C120.447 123.394 120.779 123.114 121.116 122.839C121.27 122.715 121.424 122.591 121.579 122.469C121.642 122.42 121.705 122.372 121.766 122.323C121.101 122.852 121.582 122.467 121.733 122.354C122.428 121.833 123.142 121.339 123.875 120.87C125.504 119.829 127.217 118.927 128.997 118.173L128.4 118.424C130.984 117.34 142.429 114.782 144.51 115.061L143.847 114.972C146.906 115.399 149.896 116.225 152.741 117.428L152.145 117.176C153.587 117.788 154.988 118.491 156.339 119.282C157.015 119.678 157.677 120.095 158.326 120.534C158.633 120.741 158.937 120.954 159.237 121.171C159.388 121.279 159.537 121.389 159.685 121.5C159.768 121.561 159.85 121.623 159.932 121.685C160.278 121.944 159.456 121.31 159.818 121.596C161.032 122.549 162.185 123.577 163.27 124.675C163.803 125.217 164.317 125.776 164.813 126.353C165.068 126.649 165.317 126.949 165.561 127.254C165.682 127.405 166.095 127.953 165.589 127.282C165.713 127.446 165.838 127.609 165.96 127.774C167.012 129.197 167.946 130.703 168.754 132.277C169.351 133.441 171.079 133.875 172.17 133.173C172.73 132.828 173.136 132.281 173.302 131.645C173.469 131.009 173.384 130.334 173.065 129.759Z" fill="#3F3D56"/>
<path d="M143.973 170.475C143.715 170.487 143.46 170.42 143.242 170.282C143.024 170.144 142.854 169.942 142.754 169.704C142.655 169.466 142.631 169.204 142.686 168.952C142.74 168.7 142.871 168.471 143.061 168.296C143.093 168.17 143.115 168.079 143.147 167.953C143.136 167.926 143.124 167.899 143.113 167.871C141.954 165.111 134.563 172.806 134.243 175.4C134.102 176.547 134.162 177.709 134.418 178.836C132.024 173.616 130.781 167.943 130.773 162.201C130.772 160.761 130.852 159.321 131.013 157.889C131.145 156.715 131.329 155.55 131.564 154.393C132.848 148.114 135.603 142.229 139.604 137.222C141.892 137.349 143.898 137.001 144.091 132.569C144.126 131.781 144.711 131.098 144.84 130.322C144.621 130.35 144.399 130.368 144.181 130.383C144.113 130.386 144.041 130.39 143.973 130.393L143.947 130.394C143.707 130.405 143.469 130.346 143.262 130.225C143.055 130.104 142.887 129.925 142.778 129.711C142.67 129.496 142.626 129.255 142.652 129.016C142.678 128.778 142.772 128.551 142.924 128.365C143.018 128.249 143.112 128.133 143.207 128.017C143.35 127.838 143.497 127.663 143.64 127.484C143.657 127.467 143.672 127.449 143.687 127.43C143.851 127.226 144.016 127.026 144.181 126.822C143.88 126.355 143.476 125.965 142.999 125.68C141.348 124.714 139.07 125.383 137.878 126.875C136.682 128.368 136.456 130.461 136.872 132.326C137.28 133.912 137.956 135.418 138.87 136.778C138.78 136.892 138.687 137.003 138.598 137.118C136.961 139.221 135.535 141.479 134.339 143.86C134.677 141.219 130.54 131.682 128.94 129.662C127.018 127.236 123.078 128.295 122.739 131.37C122.736 131.4 122.733 131.43 122.729 131.46C122.967 131.594 123.2 131.736 123.427 131.886C123.713 132.077 123.935 132.35 124.063 132.669C124.191 132.988 124.22 133.338 124.145 133.673C124.071 134.009 123.897 134.314 123.646 134.549C123.395 134.784 123.079 134.938 122.739 134.99L122.704 134.996C119.523 139.534 129.721 151.348 132.273 148.695C131.072 152.098 130.318 155.642 130.032 159.238C129.869 161.36 129.879 163.492 130.06 165.612L130.049 165.537C129.482 160.919 119.753 154.052 116.912 154.624C115.275 154.954 113.663 154.879 113.911 156.529C113.915 156.555 113.919 156.581 113.923 156.608C114.364 156.787 114.794 156.994 115.209 157.227C115.447 157.361 115.679 157.503 115.907 157.653C116.193 157.844 116.414 158.117 116.542 158.436C116.671 158.755 116.699 159.105 116.625 159.441C116.551 159.776 116.377 160.081 116.126 160.316C115.875 160.551 115.559 160.705 115.219 160.757L115.184 160.763C115.159 160.766 115.137 160.77 115.112 160.773C113.664 165.752 124.402 173.787 130.93 171.231H130.934C131.581 174.04 132.518 176.775 133.731 179.39H143.722C143.758 179.279 143.79 179.165 143.823 179.054C142.898 179.112 141.969 179.057 141.058 178.889C141.799 177.98 142.541 177.064 143.282 176.155C143.298 176.138 143.314 176.12 143.329 176.101C143.705 175.636 144.084 175.174 144.46 174.709C144.48 173.283 144.316 171.86 143.973 170.475ZM132.531 147.983L132.536 147.976L132.531 147.99V147.983ZM130.318 167.92L130.232 167.727C130.236 167.587 130.236 167.448 130.232 167.305C130.232 167.265 130.225 167.226 130.225 167.187C130.257 167.434 130.286 167.68 130.322 167.927L130.318 167.92Z" fill="#3F3D56"/>
<path d="M31.7077 149.698C33.73 149.698 35.3695 148.06 35.3695 146.039C35.3695 144.018 33.73 142.38 31.7077 142.38C29.6853 142.38 28.0459 144.018 28.0459 146.039C28.0459 148.06 29.6853 149.698 31.7077 149.698Z" fill="#3F3D56"/>
<path d="M75.6481 189.618C77.6705 189.618 79.3099 187.98 79.3099 185.959C79.3099 183.938 77.6705 182.3 75.6481 182.3C73.6258 182.3 71.9863 183.938 71.9863 185.959C71.9863 187.98 73.6258 189.618 75.6481 189.618Z" fill="#3F3D56"/>
<path d="M242.427 189.618C244.45 189.618 246.089 187.98 246.089 185.959C246.089 183.938 244.45 182.3 242.427 182.3C240.405 182.3 238.766 183.938 238.766 185.959C238.766 187.98 240.405 189.618 242.427 189.618Z" fill="#3F3D56"/>
<path d="M251.415 143.045C253.437 143.045 255.076 141.407 255.076 139.386C255.076 137.365 253.437 135.727 251.415 135.727C249.392 135.727 247.753 137.365 247.753 139.386C247.753 141.407 249.392 143.045 251.415 143.045Z" fill="#3F3D56"/>
<path d="M240.761 109.114C242.784 109.114 244.423 107.475 244.423 105.454C244.423 103.433 242.784 101.795 240.761 101.795C238.739 101.795 237.1 103.433 237.1 105.454C237.1 107.475 238.739 109.114 240.761 109.114Z" fill="#3F3D56"/>
<path d="M87.9654 139.386C87.9632 140.321 87.6015 141.219 86.9551 141.894C86.3087 142.57 85.4272 142.972 84.4929 143.016C83.5586 143.06 82.643 142.743 81.9357 142.132C81.2284 141.52 80.7834 140.66 80.6929 139.73C80.6024 138.8 80.8732 137.87 81.4494 137.134C82.0256 136.397 82.863 135.911 83.7884 135.774C84.7137 135.638 85.6561 135.862 86.4206 136.4C87.1851 136.939 87.7132 137.751 87.8955 138.667C87.9425 138.904 87.9659 139.145 87.9654 139.386Z" fill="#3F3D56"/>
<path d="M161.201 119.759C163.223 119.759 164.863 118.12 164.863 116.099C164.863 114.079 163.223 112.44 161.201 112.44C159.178 112.44 157.539 114.079 157.539 116.099C157.539 118.12 159.178 119.759 161.201 119.759Z" fill="#3F3D56"/>
<path d="M124.916 116.099C124.913 117.034 124.552 117.932 123.905 118.608C123.259 119.283 122.377 119.685 121.443 119.729C120.509 119.773 119.593 119.457 118.886 118.845C118.179 118.234 117.734 117.374 117.643 116.443C117.553 115.513 117.823 114.583 118.4 113.847C118.976 113.111 119.813 112.624 120.739 112.488C121.664 112.351 122.606 112.575 123.371 113.114C124.135 113.652 124.663 114.464 124.846 115.381C124.893 115.617 124.916 115.858 124.916 116.099Z" fill="#3F3D56"/>
<path d="M77.6451 105.454C77.6429 106.389 77.2812 107.287 76.6348 107.963C75.9884 108.638 75.1069 109.04 74.1726 109.084C73.2382 109.128 72.3227 108.812 71.6154 108.2C70.908 107.589 70.4631 106.729 70.3726 105.798C70.2821 104.868 70.5529 103.938 71.1291 103.202C71.7053 102.466 72.5427 101.979 73.468 101.843C74.3934 101.706 75.3358 101.93 76.1003 102.469C76.8648 103.007 77.3928 103.819 77.5752 104.736C77.6221 104.972 77.6456 105.213 77.6451 105.454Z" fill="#3F3D56"/>
<path d="M199.483 151.029C201.505 151.029 203.145 149.391 203.145 147.37C203.145 145.349 201.505 143.71 199.483 143.71C197.461 143.71 195.821 145.349 195.821 147.37C195.821 149.391 197.461 151.029 199.483 151.029Z" fill="#3F3D56"/>
<path d="M141.895 117.763C144.836 117.763 147.221 115.38 147.221 112.44C147.221 109.501 144.836 107.118 141.895 107.118C138.953 107.118 136.568 109.501 136.568 112.44C136.568 115.38 138.953 117.763 141.895 117.763Z" fill="#3F3D56"/>
<path d="M285.932 189.898L0.396363 190C0.344311 190 0.292768 189.99 0.244679 189.97C0.19659 189.95 0.152898 189.921 0.116092 189.884C0.0792859 189.847 0.0500863 189.803 0.0301671 189.755C0.0102479 189.707 0 189.656 0 189.604C0 189.552 0.0102479 189.5 0.0301671 189.452C0.0500863 189.404 0.0792859 189.36 0.116092 189.324C0.152898 189.287 0.19659 189.258 0.244679 189.238C0.292768 189.218 0.344311 189.208 0.396363 189.208L285.932 189.105C286.037 189.106 286.138 189.148 286.212 189.222C286.286 189.296 286.328 189.397 286.328 189.502C286.328 189.606 286.286 189.707 286.212 189.781C286.138 189.855 286.037 189.897 285.932 189.898Z" fill="#CACACA"/>
</g>
<defs>
<clipPath id="clip0_104_29034">
<rect width="286.329" height="190" fill="white"/>
</clipPath>
</defs>
</svg>
