<svg width="589" height="488" viewBox="0 0 589 488" fill="none" xmlns="http://www.w3.org/2000/svg">
<path d="M84.5713 15.027V452.035C84.5713 460.761 93.4682 467.65 103.92 467.02L383.157 442.561C392.592 441.991 399.895 435.452 399.895 427.576V25.246C399.895 17.2047 392.292 10.5899 382.645 10.2357L103.408 0.0147845C93.1417 -0.360814 84.5736 6.46807 84.5736 15.0251L84.5713 15.027Z" fill="#F2B6D3"/>
<path d="M127.557 53.1145V303.308C127.557 310.58 134.635 316.475 143.369 316.475L349.587 310.086C358.321 310.086 365.399 304.191 365.399 296.919V59.2759C365.399 52.2426 358.761 46.4491 350.322 46.1241L144.103 39.9627C135.091 39.6144 127.557 45.6025 127.557 53.1145Z" fill="#9138E8"/>
<path d="M358.25 296.918V59.2751C358.25 52.2419 351.612 46.4483 343.173 46.1233L140.865 40.1138C133.358 41.1082 127.559 46.5242 127.559 53.1157V303.307C127.559 310.58 134.637 316.474 143.371 316.474L342.44 310.085C351.174 310.085 358.253 304.19 358.253 296.918H358.25Z" fill="#FA96C6"/>
<path d="M251.21 33.8323C253.824 33.8323 255.942 30.9718 255.942 27.4433C255.942 23.9147 253.824 21.0542 251.21 21.0542C248.597 21.0542 246.479 23.9147 246.479 27.4433C246.479 30.9718 248.597 33.8323 251.21 33.8323Z" fill="url(#paint0_linear_264_5757)"/>
<g style="mix-blend-mode:soft-light">
<path d="M315.063 166.965L188.397 168.773C178.757 168.911 170.914 175.345 170.914 183.145V251.613C170.914 259.413 178.757 265.465 188.397 265.133L315.063 260.768C324.161 260.454 331.512 254.09 331.512 246.553V180.382C331.512 172.845 324.161 166.839 315.063 166.969V166.965Z" fill="white"/>
<path d="M313.231 160.142C309.395 160.191 306.28 157.649 306.28 154.465V139.48C306.28 124.447 291.465 112.252 273.125 112.299L231.862 112.402C213.05 112.449 197.635 125.003 197.635 140.387V155.722C197.635 158.98 194.368 161.664 190.334 161.716C186.292 161.769 183.011 159.161 183.011 155.892V140.51C183.011 118.552 205.051 100.688 231.864 100.688H273.127C299.181 100.688 320.165 118.04 320.165 139.367V154.308C320.165 157.482 317.065 160.095 313.233 160.144L313.231 160.142Z" fill="white"/>
<path d="M272.225 204.91C272.225 197.301 264.486 191.328 255.077 191.877C246.758 192.362 239.877 198.081 239.428 204.908C239.079 210.206 242.471 214.787 247.629 217.103C249.821 218.087 250.912 220.164 250.486 222.219L246.869 239.639C246.409 241.857 248.486 243.805 251.22 243.722L260.514 243.435C263.232 243.352 265.296 241.283 264.84 239.101L261.226 221.843C260.795 219.784 262.042 217.739 264.241 216.612C269.025 214.158 272.225 209.805 272.225 204.912V204.91Z" fill="#E31276"/>
</g>
<g style="mix-blend-mode:multiply" opacity="0.6">
<path d="M238.511 380.394C238.511 404.716 214.72 425.96 185.019 427.867C154.916 429.8 130.211 411.183 130.211 386.263C130.211 361.344 154.916 340.049 185.019 338.718C214.723 337.405 238.511 356.07 238.511 380.392V380.394Z" fill="#E31276"/>
</g>
<g style="mix-blend-mode:multiply" opacity="0.6">
<path d="M367.182 373.419C367.182 397.031 344.765 417.612 316.787 419.408C288.441 421.227 265.189 403.123 265.189 378.948C265.189 354.774 288.443 334.147 316.787 332.896C344.765 331.658 367.182 349.809 367.182 373.421V373.419Z" fill="#E31276"/>
</g>
<g style="mix-blend-mode:soft-light">
<path d="M204.831 373.774C203.568 373.84 202.543 373.046 202.543 372.001V367.083C202.543 362.15 197.682 358.373 191.69 358.664L178.322 359.316C172.279 359.61 167.35 363.897 167.35 368.87V373.827C167.35 374.879 166.309 375.788 165.024 375.856C163.738 375.924 162.695 375.123 162.695 374.07V369.107C162.695 362.023 169.719 355.924 178.324 355.512L191.692 354.871C200.212 354.463 207.119 359.838 207.119 366.852V371.766C207.119 372.809 206.096 373.71 204.833 373.776L204.831 373.774Z" fill="white"/>
<path d="M205.435 375.993L164.408 378.159C161.345 378.32 158.857 380.488 158.857 383.001V405.052C158.857 407.564 161.345 409.452 164.408 409.269L205.435 406.817C208.439 406.638 210.869 404.48 210.869 401.996V380.2C210.869 377.717 208.437 375.833 205.435 375.991V375.993ZM187.729 393.463C187.015 393.854 186.612 394.533 186.75 395.199L187.922 400.792C188.069 401.5 187.401 402.193 186.519 402.244L183.508 402.419C182.623 402.471 181.952 401.854 182.102 401.128L183.272 395.424C183.41 394.751 183.056 394.087 182.349 393.788C180.683 393.087 179.59 391.633 179.701 389.907C179.846 387.683 182.066 385.746 184.757 385.495C187.809 385.209 190.323 387.074 190.323 389.557C190.323 391.155 189.282 392.608 187.727 393.459L187.729 393.463Z" fill="white"/>
</g>
<g style="mix-blend-mode:soft-light">
<path d="M333.521 366.986C332.467 366.567 332.064 365.478 332.619 364.551L335.231 360.196C337.85 355.831 335.938 350.666 330.964 348.673L319.872 344.23C314.862 342.222 308.617 344.15 305.965 348.539L303.316 352.917C302.754 353.848 301.43 354.26 300.36 353.836C299.29 353.412 298.879 352.312 299.444 351.38L302.097 346.999C305.878 340.754 314.766 338.016 321.895 340.879L332.977 345.33C340.045 348.169 342.758 355.512 339.04 361.716L336.433 366.069C335.877 366.996 334.576 367.406 333.521 366.99V366.986Z" fill="white"/>
<path d="M336.021 369.097L297.383 371.137C294.499 371.289 292.157 373.389 292.157 375.825V397.223C292.157 399.659 294.499 401.496 297.383 401.323L336.021 399.015C338.85 398.846 341.14 396.755 341.14 394.346V373.19C341.14 370.781 338.85 368.948 336.021 369.097ZM319.345 386.025C318.671 386.402 318.29 387.06 318.422 387.708L319.526 393.138C319.666 393.825 319.034 394.496 318.204 394.545L315.368 394.71C314.536 394.759 313.903 394.159 314.044 393.457L315.145 387.924C315.275 387.272 314.944 386.626 314.275 386.334C312.706 385.651 311.676 384.238 311.781 382.564C311.917 380.406 314.01 378.532 316.542 378.291C319.415 378.018 321.784 379.83 321.784 382.241C321.784 383.792 320.802 385.201 319.34 386.023L319.345 386.025Z" fill="white"/>
</g>
<g style="mix-blend-mode:soft-light" opacity="0.3">
<path d="M382.642 10.2377L149.159 1.69238C149.223 4.01214 149.411 6.36887 149.758 8.76064C156.034 52.2483 204.751 59.1959 223.506 107.631C240.693 152.013 206.128 162.557 226.456 201.588C245.506 238.164 281.08 238.932 302.418 285.106C311.782 305.366 307.057 367.942 314.956 389.29C321.713 407.553 334.369 421.522 358.962 444.023L383.154 442.561C392.589 441.991 399.892 435.452 399.892 427.576V25.2461C399.892 17.2048 392.289 10.59 382.642 10.2358V10.2377Z" fill="white"/>
</g>
<path d="M380.034 476.051C380.361 476.051 380.626 475.823 380.626 475.543V275.24C380.626 274.96 380.361 274.732 380.034 274.732C379.708 274.732 379.442 274.96 379.442 275.24V475.543C379.442 475.823 379.708 476.051 380.034 476.051Z" fill="#9138E8"/>
<path d="M442.904 463.469C443.231 463.469 443.496 463.242 443.496 462.961V270.19C443.496 269.91 443.231 269.682 442.904 269.682C442.578 269.682 442.312 269.91 442.312 270.19V462.961C442.312 463.242 442.578 463.469 442.904 463.469Z" fill="#9138E8"/>
<path d="M588.259 472.445C588.327 472.445 588.395 472.436 588.461 472.414C588.769 472.319 588.925 472.027 588.814 471.762L504.772 272.995C504.661 272.73 504.321 272.596 504.012 272.691C503.704 272.787 503.548 273.079 503.659 273.343L587.701 472.111C587.789 472.317 588.016 472.445 588.257 472.445H588.259Z" fill="#9138E8"/>
<path d="M526.215 488C526.274 488 526.333 487.992 526.39 487.977C526.702 487.893 526.877 487.609 526.78 487.34L451.351 277.776C451.253 277.507 450.922 277.357 450.609 277.441C450.296 277.525 450.122 277.809 450.219 278.078L525.648 487.642C525.728 487.86 525.961 488 526.213 488H526.215Z" fill="#9138E8"/>
<path d="M442.213 269.989L379.146 273.996V275.215L451.223 277.988L505.097 272.321V271.104L442.213 269.989Z" fill="#9138E8"/>
<path d="M442.213 268.773L379.146 273.997L451.223 276.77L505.097 271.105L442.213 268.773Z" fill="#9138E8"/>
<path d="M509.896 442.663C509.946 442.663 509.996 442.658 510.046 442.646L570.098 429.124C570.413 429.052 570.603 428.776 570.52 428.504C570.436 428.231 570.111 428.07 569.796 428.142L509.744 441.665C509.427 441.737 509.239 442.013 509.323 442.286C509.393 442.514 509.633 442.665 509.894 442.665L509.896 442.663Z" fill="#9138E8"/>
<path d="M492.884 395.226C492.918 395.226 492.952 395.224 492.988 395.218L551.922 386.26C552.244 386.211 552.46 385.947 552.403 385.67C552.346 385.394 552.038 385.211 551.716 385.258L492.782 394.216C492.46 394.264 492.244 394.529 492.301 394.805C492.351 395.053 492.603 395.226 492.884 395.226Z" fill="#9138E8"/>
<path d="M475.2 346.262C475.225 346.262 475.25 346.262 475.277 346.258L532.313 339.947C532.638 339.912 532.867 339.657 532.826 339.378C532.783 339.1 532.486 338.904 532.164 338.939L475.127 345.25C474.803 345.285 474.574 345.54 474.615 345.818C474.654 346.075 474.908 346.262 475.202 346.262H475.2Z" fill="#9138E8"/>
<path d="M463.865 312.284C463.895 312.284 463.926 312.283 463.958 312.279L517.584 305.076C517.906 305.033 518.129 304.773 518.079 304.496C518.029 304.22 517.723 304.029 517.403 304.072L463.777 311.274C463.455 311.317 463.233 311.578 463.282 311.854C463.328 312.105 463.579 312.284 463.867 312.284H463.865Z" fill="#9138E8"/>
<path d="M413.66 263.996C413.66 263.996 397.546 270.282 397.283 271.284C397.02 272.288 407.645 270.947 411.982 271.091C416.319 271.235 419.888 270.136 419.496 268.56C419.104 266.983 417.585 263.015 417.585 263.015L413.658 263.994L413.66 263.996Z" fill="url(#paint1_linear_264_5757)"/>
<path d="M413.072 258.895L414.051 265.123C414.051 265.123 416.602 265.901 418.316 264.981L419.046 258.152L413.069 258.897L413.072 258.895Z" fill="url(#paint2_linear_264_5757)"/>
<path d="M488.953 259.045L490.828 261.627C491.352 262.349 491.508 263.219 491.257 264.043C490.601 266.189 489.293 270.375 488.722 271.467C487.944 272.954 477.517 273.837 477.517 273.837C477.517 273.837 476.587 272.714 478.752 271.358C480.918 270.001 482.31 269.787 483.074 267.787C483.838 265.784 484.348 260.123 484.348 260.123L488.955 259.047L488.953 259.045Z" fill="url(#paint3_linear_264_5757)"/>
<path d="M481.151 252.481C481.836 252.95 485.185 261.674 485.185 261.674C485.185 261.674 486.269 262.863 488.327 261.108C490.386 259.352 489.259 260.32 489.259 260.32L488.874 251.739L481.151 252.481Z" fill="url(#paint4_linear_264_5757)"/>
<path d="M404.206 133.794C403.356 152.367 403.322 172.549 404.566 194.108C405.968 218.385 408.786 240.822 412.336 261.163C413.656 261.199 415.044 261.205 416.492 261.17C417.472 261.147 418.42 261.106 419.336 261.052C421.179 256.834 423.356 251.288 425.305 244.663C427.355 237.696 428.593 231.449 429.473 225.473C432.577 204.434 428.94 202.598 431.457 187.008C433.688 173.201 436.857 172.659 440.58 153.054C444.621 131.782 441.612 128.592 440.15 127.438C433.923 122.53 419.302 125.871 404.204 133.794H404.206Z" fill="url(#paint5_linear_264_5757)"/>
<path style="mix-blend-mode:multiply" opacity="0.3" d="M440.152 127.438C434.214 122.756 420.635 125.591 406.292 132.735C422.791 148.035 424.591 157.963 422.612 164.402C420.376 171.681 413.579 173.779 413.606 181.736C413.638 191.517 423.923 194.108 423.705 204.459C423.56 211.303 419.041 211.231 417.973 219.685C416.71 229.686 422.614 233.133 420.703 240.534C419.88 243.718 417.533 247.877 410.845 252.164C411.328 255.204 411.822 258.21 412.337 261.163C413.656 261.198 415.044 261.205 416.493 261.17C417.472 261.147 418.42 261.106 419.336 261.052C421.179 256.834 423.356 251.288 425.306 244.664C427.355 237.696 428.593 231.449 429.473 225.473C432.575 204.436 428.94 202.598 431.457 187.008C433.688 173.201 436.858 172.66 440.58 153.054C444.621 131.782 441.612 128.592 440.15 127.438H440.152Z" fill="url(#paint6_linear_264_5757)"/>
<path d="M414.427 133.481C428.634 151.323 443.956 173.53 457.66 200.11C468.017 220.195 475.526 239.055 481.04 255.862C481.786 256.157 483.546 256.749 485.797 256.494C488.865 256.146 490.703 254.464 491.184 253.995C493.429 241.947 493.182 231.742 492.42 224.378C491.932 219.662 491.069 211.81 487.568 202.116C483.645 191.257 480.95 190.648 475.832 179.16C470.522 167.236 471.808 164.26 466.722 149.338C464.632 143.208 461.136 134.086 455.363 123.174C441.716 126.609 428.071 130.046 414.427 133.481Z" fill="url(#paint7_linear_264_5757)"/>
<path d="M348.835 156.125C351.567 159.772 360.969 159.346 367.392 157.375C382.409 152.766 392.02 136.374 392.866 123.33C393.047 120.529 392.931 117.791 393.593 117.707C395.258 117.497 399.529 134.432 402.883 148.789C405.578 149.635 409.666 150.534 414.335 149.878C421.978 148.804 422.889 144.727 431.437 142.071C436.425 140.52 441.311 140.516 451.088 140.51C462.123 140.502 462.427 141.67 464.551 140.823C464.551 140.823 465.077 140.576 465.528 140.298C473.387 135.456 450.906 98.6511 457.38 64.6936C458.098 60.9201 459.203 57.0434 456.747 53.266C450.401 43.5024 425.318 42.1265 409.778 48.5506C405.517 50.3118 398.384 54.1651 392.013 58.2247C389.467 59.8478 386.819 61.6635 384.057 63.7361C377.357 68.759 372.693 72.2561 368.85 77.1078C353.356 96.6778 371.263 112.986 357.205 138.013C352.372 146.619 345.976 152.309 348.837 156.127L348.835 156.125Z" fill="url(#paint8_linear_264_5757)"/>
<path d="M390.499 45.02C390.499 45.02 394.532 48.9511 398.87 50.9887C402.788 52.8297 411.426 49.7276 413.426 49.3637C415.423 48.9998 413.027 53.6179 409.256 56.8017C405.486 59.9856 393.022 67.2659 389.66 67.3885C386.297 67.5111 390.202 64.9832 392.265 62.0406C394.328 59.0981 391.419 53.0146 388.814 51.1405C386.209 49.2664 390.499 45.0161 390.499 45.0161V45.02Z" fill="url(#paint9_linear_264_5757)"/>
<path d="M371.556 161.899C371.556 161.899 365.624 164.019 361.498 164.338C357.371 164.655 356.315 167.426 357.39 168.508C358.467 169.59 365.053 168.746 367.295 167.788C369.538 166.831 371.553 161.901 371.553 161.901L371.556 161.899Z" fill="url(#paint10_linear_264_5757)"/>
<path d="M381.229 48.0971C376.651 47.7993 372.026 42.9594 372.96 40.8479C373.228 40.2446 373.822 40.1492 382.784 38.8803C387.235 38.2517 389.459 37.991 390.997 39.0477C391.935 39.6919 392.668 40.8401 392.899 41.926C393.017 42.4845 393.024 43.2532 392.912 44.7848C392.813 46.1451 392.842 46.0848 392.801 46.4857C392.702 47.451 392.395 49.148 391.3 51.4989C390.845 51.0688 390.239 50.557 389.477 50.051C389.185 49.8564 388.022 49.1032 386.702 48.6459C384.43 47.8597 382.714 48.1925 381.229 48.0951V48.0971Z" fill="url(#paint11_linear_264_5757)"/>
<path d="M392.971 48.8795C392.971 48.8795 392.767 52.6394 388.641 54.2897C384.945 55.7668 380.041 49.1442 381.39 46.6162C381.839 45.7716 383.233 44.855 384.662 44.5708C385.505 44.4035 385.92 44.5475 387.292 44.2497C388.557 43.9753 388.804 43.7223 389.291 43.808C389.904 43.9131 390.681 44.5105 391.264 46.8478C391.568 45.9351 392.239 45.324 392.969 45.287C393.085 45.2812 393.422 45.3084 393.697 45.4602C394.697 46.011 394.502 47.4044 392.971 48.8795Z" fill="url(#paint12_linear_264_5757)"/>
<path d="M491.72 124.748C497.907 122.145 511.266 115.479 515.372 103.197C522.211 82.7515 497.891 63.2496 485.337 55.9537C470.942 47.5874 456.479 46.2368 447.689 45.4155C436.783 44.3977 430.126 43.7749 425.127 47.2896C412.196 56.3779 419.969 86.3674 432.768 89.4559C436.957 90.4659 438.542 87.8348 447.324 86.019C450.183 85.4274 471.523 81.0156 482.621 90.7033C490.389 97.4835 491.38 109.639 485.895 121C487.836 122.25 489.777 123.499 491.717 124.748H491.72Z" fill="url(#paint13_linear_264_5757)"/>
<path d="M257.297 194.46L277.355 199.584C278.598 199.901 279.945 199.804 281.144 199.308L291.315 195.092L288.987 190.459L297.757 186.812L295.764 190.743L300.09 191.455L308.331 188.04L306.18 183.76L316.927 179.292L319.083 183.583L323.103 181.917L321.992 179.706L331.061 175.943L327.848 177.445L332.174 178.157L339.255 175.223L336.902 170.538L341.971 168.431L340.001 172.408L344.327 173.121L348.733 171.295L346.372 166.601L355.203 162.929L353.24 166.922L357.566 167.635L375.41 160.238C386.909 171.498 403.948 177.511 421.733 176.74C421.749 176.74 421.762 176.74 421.778 176.739C422.236 176.719 422.697 176.694 423.157 176.665C423.202 176.663 423.248 176.659 423.293 176.657C423.76 176.626 424.229 176.591 424.696 176.552C424.705 176.552 424.712 176.552 424.721 176.55C425.692 176.466 426.662 176.363 427.635 176.238C427.696 176.231 427.76 176.221 427.821 176.213C428.222 176.161 428.626 176.104 429.027 176.046C429.131 176.03 429.236 176.015 429.34 175.999C429.718 175.941 430.095 175.88 430.473 175.816C430.569 175.801 430.666 175.785 430.761 175.767C431.702 175.604 432.643 175.423 433.582 175.221C433.668 175.201 433.757 175.182 433.843 175.162C434.215 175.08 434.586 174.997 434.956 174.909C435.094 174.876 435.23 174.843 435.369 174.81C435.697 174.73 436.026 174.648 436.355 174.563C436.498 174.526 436.638 174.491 436.781 174.452C437.137 174.358 437.493 174.261 437.847 174.162C437.951 174.133 438.053 174.105 438.157 174.076C438.615 173.946 439.073 173.81 439.531 173.67C439.611 173.644 439.692 173.619 439.772 173.594C440.144 173.477 440.518 173.358 440.89 173.237C441.039 173.189 441.189 173.138 441.336 173.088C441.645 172.984 441.951 172.879 442.257 172.77C442.418 172.714 442.576 172.658 442.737 172.599C443.05 172.486 443.361 172.371 443.674 172.255C443.814 172.202 443.957 172.15 444.098 172.095C444.547 171.924 444.993 171.749 445.44 171.568C476.926 158.795 491.949 126.772 478.597 100.202C465.245 73.6319 428.846 63.1171 397.69 76.5472C397.248 76.7379 396.811 76.9325 396.378 77.131C396.242 77.1933 396.106 77.2575 395.97 77.3198C395.67 77.458 395.371 77.6 395.074 77.7421C394.922 77.8161 394.77 77.89 394.618 77.964C394.328 78.106 394.042 78.2481 393.757 78.3941C393.616 78.4641 393.478 78.5342 393.337 78.6062C392.993 78.7833 392.653 78.9623 392.312 79.1453C392.24 79.1842 392.165 79.2231 392.093 79.262C391.678 79.4858 391.265 79.7155 390.859 79.9471C390.766 79.9996 390.675 80.0521 390.585 80.1066C390.27 80.2876 389.957 80.4686 389.648 80.6535C389.524 80.7274 389.401 80.8014 389.277 80.8773C388.993 81.0485 388.71 81.2218 388.431 81.3969C388.313 81.4709 388.195 81.5448 388.077 81.6187C387.764 81.8173 387.454 82.0177 387.145 82.2201C387.07 82.2688 386.996 82.3174 386.921 82.3661C386.141 82.8837 385.377 83.415 384.629 83.958C384.549 84.0144 384.472 84.0728 384.395 84.1292C384.098 84.3472 383.801 84.5671 383.509 84.7909C383.427 84.8532 383.343 84.9155 383.261 84.9797C382.953 85.2171 382.645 85.4565 382.343 85.6978C382.293 85.7367 382.243 85.7776 382.193 85.8165C381.459 86.4062 380.74 87.0075 380.04 87.6225C380.03 87.6303 380.021 87.6381 380.012 87.6458C379.677 87.9397 379.346 88.2375 379.019 88.5391C378.985 88.5702 378.949 88.6033 378.915 88.6345C378.593 88.9303 378.278 89.228 377.965 89.5297C377.951 89.5433 377.938 89.555 377.924 89.5686C365.678 101.36 359.554 117.061 361.4 132.358L258.448 175.81C256.78 176.515 255.601 177.918 255.326 179.527L253.653 189.361C253.624 189.53 253.61 189.698 253.601 189.865C253.599 189.912 253.601 189.958 253.599 190.005C253.599 190.132 253.599 190.256 253.61 190.381C253.612 190.424 253.617 190.466 253.621 190.507C253.637 190.665 253.662 190.821 253.696 190.972C253.696 190.974 253.696 190.978 253.696 190.98C254.063 192.617 255.406 193.981 257.297 194.466V194.46ZM451.838 123.098C445.472 125.745 438.151 123.565 435.473 118.235C432.795 112.904 435.761 106.422 442.116 103.748C448.487 101.066 455.849 103.228 458.54 108.586C461.232 113.942 458.225 120.442 451.841 123.096L451.838 123.098Z" fill="#450F7A"/>
<path d="M403.519 146.076L353.243 166.916L350.879 162.213L342.047 165.885L344.408 170.581L340.002 172.406L337.644 167.716L332.575 169.824L334.928 174.508L327.847 177.443L326.734 175.228L317.665 178.992L318.776 181.203L314.756 182.869L312.6 178.578L301.853 183.046L304.004 187.325L295.763 190.741L293.43 186.097L284.66 189.744L286.988 194.378L276.817 198.593C275.62 199.09 274.273 199.189 273.028 198.87L252.97 193.745C250.48 193.109 248.936 190.945 249.328 188.639L251.002 178.805C251.276 177.196 252.453 175.793 254.124 175.088L379.014 122.376L403.516 146.074L403.519 146.076Z" fill="#9138E8"/>
<path d="M393.368 75.8289C362.639 89.0761 348.591 120.691 361.614 146.607C374.638 172.523 410.062 183.445 441.117 170.847C472.604 158.075 487.627 126.052 474.275 99.4819C460.922 72.9117 424.523 62.3969 393.368 75.827V75.8289ZM437.789 103.037C444.16 100.356 451.522 102.518 454.213 107.875C456.905 113.231 453.898 119.731 447.514 122.386C441.147 125.032 433.826 122.853 431.148 117.522C428.47 112.192 431.436 105.709 437.791 103.035L437.789 103.037Z" fill="#AF67F5"/>
<path style="mix-blend-mode:multiply" opacity="0.3" d="M357.075 131.637L254.123 175.09C252.454 175.795 251.275 177.198 251.001 178.807L249.328 188.641C249.076 190.122 249.629 191.539 250.713 192.535C263.863 191.502 272.5 187.755 278.322 183.883C284.902 179.508 286.747 175.744 295.497 171.828C308.06 166.206 312.207 170.384 326.507 165.86C343.666 160.43 348.33 151.083 356.542 152.974C359.469 153.648 362.888 155.773 365.72 161.744L371.084 159.519C387.688 175.779 415.843 181.103 441.117 170.849C472.603 158.077 487.626 126.054 474.274 99.4839C460.922 72.9137 424.522 62.3989 393.367 75.8289C368.359 86.6104 354.404 109.547 357.072 131.635L357.075 131.637ZM447.513 122.388C441.146 125.034 433.825 122.855 431.148 117.524C428.47 112.194 431.435 105.711 437.791 103.037C444.162 100.356 451.524 102.518 454.215 107.875C456.906 113.231 453.9 119.731 447.515 122.386L447.513 122.388Z" fill="url(#paint14_linear_264_5757)"/>
<path d="M398.059 84.1548C373.302 94.765 361.936 120.206 372.429 141.088C382.922 161.968 411.468 170.716 436.438 160.526C461.684 150.223 473.678 124.517 462.974 103.213C452.27 81.911 423.092 73.426 398.061 84.1548H398.059ZM437.793 102.038C444.165 99.3559 451.526 101.518 454.218 106.876C456.909 112.231 453.903 118.731 447.518 121.386C441.151 124.032 433.83 121.853 431.153 116.522C428.475 111.192 431.44 104.71 437.796 102.036L437.793 102.038Z" fill="#6816B8"/>
<path d="M490.472 123.945L487.195 121.835C487.195 121.835 485.141 123.057 482.629 122.89C481.26 122.798 479.443 123.505 479.033 123.878C478.623 124.252 476.716 125.149 479.446 124.914C482.175 124.68 482.615 125.332 482.234 126.504C481.854 127.675 479.575 130.954 478.416 131.657C477.258 132.359 480.579 132.829 481.944 132.398C483.309 131.968 485.493 131.188 487.084 128.65C487.665 127.724 490.469 123.943 490.469 123.943L490.472 123.945Z" fill="url(#paint15_linear_264_5757)"/>
<path d="M93.1007 478.618C103.022 478.704 115.869 477.324 128.675 471.466C142.528 465.128 161.149 451.346 157.692 441.493C156.402 437.814 151.935 434.407 147.702 434.374C141.446 434.325 139.95 441.674 128.326 448.899C126.176 450.234 115.069 457.139 110.217 454.152C107.804 452.667 107.423 449.038 108.122 446.352C110.164 438.503 121.589 438.153 133.345 430.39C145.265 422.52 156.03 408.022 151.856 397.337C149.457 391.197 141.97 385.92 136.59 386.828C134.291 387.216 132.706 388.679 124.589 400.768C117.925 410.692 116.37 413.615 112.668 414.319C108.856 415.045 103.229 413.334 101.367 410.034C96.5175 401.436 122.417 391.283 127.038 368.621C129.108 358.464 127.466 343.051 117.009 338.97C109.94 336.21 99.1929 338.767 94.8329 344.226C90.9036 349.146 94.613 353.361 90.8129 364.8C89.6612 368.272 87.2873 375.416 83.841 375.535C79.7938 375.675 76.2863 366.063 75.4882 363.728C69.4753 346.139 79.3154 338.088 72.8332 329.274C67.7794 322.403 55.5926 318.861 45.3852 321.352C36.4543 323.531 28.7749 330.391 27.512 338.018C26.2287 345.777 33.0578 354.124 46.7138 370.818C53.1893 378.735 58.4358 384.151 57.343 391.439C56.8101 394.992 54.6403 399.881 51.6158 400.111C44.9431 400.617 44.0792 377.668 28.8792 372.966C21.1001 370.559 10.8314 373.324 5.83656 379.155C-0.282905 386.297 2.17259 397.277 8.28071 403.421C16.2526 411.437 25.7957 406.544 41.4129 415.697C48.3418 419.756 59.0253 428.082 56.7059 434.111C55.6946 436.734 52.1486 439.109 48.5186 439.183C40.3858 439.348 38.9075 427.817 26.4827 421.843C17.5313 417.538 4.59407 416.935 1.05934 421.214C-3.931 427.255 9.91997 442.905 17.4202 449.927C26.4849 458.416 48.2397 474.862 93.0961 478.616L93.1007 478.618Z" fill="url(#paint16_linear_264_5757)"/>
<g opacity="0.5">
<path d="M89.5447 474.711C92.8345 455.798 82.2213 415.981 73.4695 396.878C64.9421 378.264 57.9407 349.294 57.8704 349.004L56.2334 349.294C56.3037 349.586 63.3323 378.674 71.9141 397.404C80.6001 416.361 91.1431 455.818 87.8918 474.498L89.5447 474.711Z" fill="white"/>
</g>
<path d="M116.063 482.874C124.402 474.605 136.947 459.492 141.126 438.305C142.846 429.574 146.209 412.523 135.516 396.767C130.186 388.914 118.389 377 109.32 379.48C103.484 381.074 99.1872 388.515 100.164 394.5C101.148 400.535 106.912 401.529 112.204 412.048C114.163 415.94 116.387 420.504 114.072 422.806C112.138 424.729 107.377 424.74 103.964 423.236C96.9153 420.126 100.017 412.486 92.6936 406.272C87.4856 401.852 78.3075 399.258 73.9226 402.212C70.1135 404.777 70.0341 411.448 72.6778 416.101C76.9109 423.553 86.0368 422.164 91.0407 430.341C93.2604 433.969 94.5528 439.289 92.0837 441.163C89.27 443.298 81.9171 440.7 77.3371 437.748C71.2925 433.85 71.4331 430.209 67.2657 429.43C62.6178 428.562 56.3373 431.954 54.9747 436.135C53.0656 441.99 60.9082 449.069 67.3564 452.377C75.6117 456.612 82.2436 455.008 85.9484 460.214C87.3087 462.125 88.4197 465.157 86.9664 466.833C84.8918 469.224 78.439 467.885 74.1538 466.998C63.7265 464.836 61.1599 461.321 57.2057 462.629C53.2016 463.952 50.6555 469.267 51.9115 473.229C52.6099 475.43 55.0336 478.945 68.5377 482.067C77.9878 484.252 94.0132 486.51 116.067 482.878L116.063 482.874Z" fill="url(#paint17_linear_264_5757)"/>
<defs>
<linearGradient id="paint0_linear_264_5757" x1="258.495" y1="16.8312" x2="244.577" y2="44.35" gradientUnits="userSpaceOnUse">
<stop stop-color="#311944"/>
<stop offset="1" stop-color="#893976"/>
</linearGradient>
<linearGradient id="paint1_linear_264_5757" x1="405.854" y1="242.188" x2="408.807" y2="285.986" gradientUnits="userSpaceOnUse">
<stop stop-color="#311944"/>
<stop offset="1" stop-color="#A03976"/>
</linearGradient>
<linearGradient id="paint2_linear_264_5757" x1="416.189" y1="266.532" x2="415.653" y2="221.242" gradientUnits="userSpaceOnUse">
<stop stop-color="#FFC444"/>
<stop offset="1" stop-color="#F36F56"/>
</linearGradient>
<linearGradient id="paint3_linear_264_5757" x1="481.498" y1="237.087" x2="484.451" y2="280.885" gradientUnits="userSpaceOnUse">
<stop stop-color="#311944"/>
<stop offset="1" stop-color="#A03976"/>
</linearGradient>
<linearGradient id="paint4_linear_264_5757" x1="485.511" y1="265.712" x2="484.975" y2="220.42" gradientUnits="userSpaceOnUse">
<stop stop-color="#FFC444"/>
<stop offset="1" stop-color="#F36F56"/>
</linearGradient>
<linearGradient id="paint5_linear_264_5757" x1="403.596" y1="193.166" x2="442.607" y2="193.166" gradientUnits="userSpaceOnUse">
<stop stop-color="#444B8C"/>
<stop offset="1" stop-color="#3E4177"/>
</linearGradient>
<linearGradient id="paint6_linear_264_5757" x1="403.594" y1="193.168" x2="442.605" y2="193.168" gradientUnits="userSpaceOnUse">
<stop stop-color="#444B8C"/>
<stop offset="1" stop-color="#3E4177"/>
</linearGradient>
<linearGradient id="paint7_linear_264_5757" x1="414.427" y1="189.865" x2="492.962" y2="189.865" gradientUnits="userSpaceOnUse">
<stop stop-color="#444B8C"/>
<stop offset="1" stop-color="#3E4177"/>
</linearGradient>
<linearGradient id="paint8_linear_264_5757" x1="419.91" y1="187.135" x2="398.426" y2="45.4542" gradientUnits="userSpaceOnUse">
<stop stop-color="#AA80F9"/>
<stop offset="1" stop-color="#6165D7"/>
</linearGradient>
<linearGradient id="paint9_linear_264_5757" x1="401.06" y1="70.115" x2="401.06" y2="43.0583" gradientUnits="userSpaceOnUse">
<stop stop-color="#FFC444"/>
<stop offset="1" stop-color="#F36F56"/>
</linearGradient>
<linearGradient id="paint10_linear_264_5757" x1="357.164" y1="165.043" x2="371.342" y2="165.885" gradientUnits="userSpaceOnUse">
<stop stop-color="#FFC444"/>
<stop offset="1" stop-color="#F36F56"/>
</linearGradient>
<linearGradient id="paint11_linear_264_5757" x1="406.071" y1="58.7853" x2="381.691" y2="34.9356" gradientUnits="userSpaceOnUse">
<stop stop-color="#444B8C"/>
<stop offset="1" stop-color="#3E4177"/>
</linearGradient>
<linearGradient id="paint12_linear_264_5757" x1="378.778" y1="62.3193" x2="390.268" y2="36.2891" gradientUnits="userSpaceOnUse">
<stop stop-color="#FFC444"/>
<stop offset="1" stop-color="#F36F56"/>
</linearGradient>
<linearGradient id="paint13_linear_264_5757" x1="487.453" y1="176.894" x2="465.969" y2="35.2139" gradientUnits="userSpaceOnUse">
<stop stop-color="#AA80F9"/>
<stop offset="1" stop-color="#6165D7"/>
</linearGradient>
<linearGradient id="paint14_linear_264_5757" x1="358.369" y1="63.5627" x2="372.72" y2="362.742" gradientUnits="userSpaceOnUse">
<stop stop-color="#E31276"/>
<stop offset="1" stop-color="#F36F56"/>
</linearGradient>
<linearGradient id="paint15_linear_264_5757" x1="486.209" y1="137.12" x2="483.874" y2="121.714" gradientUnits="userSpaceOnUse">
<stop stop-color="#FFC444"/>
<stop offset="1" stop-color="#F36F56"/>
</linearGradient>
<linearGradient id="paint16_linear_264_5757" x1="71.0585" y1="259.098" x2="88.5391" y2="779.777" gradientUnits="userSpaceOnUse">
<stop stop-color="#AA80F9"/>
<stop offset="1" stop-color="#6165D7"/>
</linearGradient>
<linearGradient id="paint17_linear_264_5757" x1="66.3784" y1="401.353" x2="136.092" y2="518.589" gradientUnits="userSpaceOnUse">
<stop stop-color="#E38DDD"/>
<stop offset="1" stop-color="#9571F6"/>
</linearGradient>
</defs>
</svg>
