<svg width="40" height="40" viewBox="0 0 40 40" fill="none" xmlns="http://www.w3.org/2000/svg">
<rect width="40" height="40" rx="8" fill="#9138E8"/>
<path d="M28.6211 16.45C27.5711 11.83 23.5411 9.75 20.0011 9.75H19.9911C16.4611 9.75 12.4211 11.82 11.3711 16.44C10.2011 21.6 13.3611 25.97 16.2211 28.72C17.2348 29.7012 18.5903 30.2498 20.0011 30.25C21.3611 30.25 22.7211 29.74 23.7711 28.72C26.6311 25.97 29.7911 21.61 28.6211 16.45ZM20.0011 21.46C19.5874 21.46 19.1778 21.3785 18.7956 21.2202C18.4134 21.0619 18.0662 20.8299 17.7737 20.5374C17.4812 20.2449 17.2492 19.8976 17.0909 19.5155C16.9325 19.1333 16.8511 18.7237 16.8511 18.31C16.8511 17.8963 16.9325 17.4867 17.0909 17.1045C17.2492 16.7224 17.4812 16.3751 17.7737 16.0826C18.0662 15.7901 18.4134 15.5581 18.7956 15.3998C19.1778 15.2415 19.5874 15.16 20.0011 15.16C20.8365 15.16 21.6377 15.4919 22.2285 16.0826C22.8192 16.6734 23.1511 17.4746 23.1511 18.31C23.1511 19.1454 22.8192 19.9466 22.2285 20.5374C21.6377 21.1281 20.8365 21.46 20.0011 21.46Z" fill="#F8F1FF"/>
</svg>
