<svg width="40" height="40" viewBox="0 0 40 40" fill="none" xmlns="http://www.w3.org/2000/svg">
<rect width="40" height="40" rx="8" fill="#9138E8"/>
<path d="M25 11.5H15C12 11.5 10 13 10 16.5V23.5C10 27 12 28.5 15 28.5H25C28 28.5 30 27 30 23.5V16.5C30 13 28 11.5 25 11.5ZM25.47 17.59L22.34 20.09C21.68 20.62 20.84 20.88 20 20.88C19.16 20.88 18.31 20.62 17.66 20.09L14.53 17.59C14.377 17.463 14.2791 17.2817 14.2567 17.0841C14.2343 16.8866 14.2893 16.688 14.41 16.53C14.67 16.21 15.14 16.15 15.46 16.41L18.59 18.91C19.35 19.52 20.64 19.52 21.4 18.91L24.53 16.41C24.85 16.15 25.33 16.2 25.58 16.53C25.84 16.85 25.79 17.33 25.47 17.59Z" fill="#F8F1FF"/>
</svg>
