<svg width="33" height="32" viewBox="0 0 33 32" fill="none" xmlns="http://www.w3.org/2000/svg">
<path fill-rule="evenodd" clip-rule="evenodd" d="M1.47135 5.98218H9.73438V1.29448C9.73438 0.583158 10.2083 0 10.7891 0H21.888C22.4661 0 22.9401 0.583158 22.9401 1.29448V5.97897H31.5286C32.0625 5.97897 32.5 6.51727 32.5 7.17413V30.8016C32.5 31.4585 32.0625 31.9968 31.5286 31.9968H1.47135C0.9375 32 0.5 31.4617 0.5 30.8048V7.17733C0.5 6.51727 0.9375 5.97897 1.47135 5.98218ZM11.8411 5.98218H20.8333V3.68799C20.8333 2.97667 20.3594 2.39351 19.7813 2.39351H12.8958C12.3177 2.39351 11.8438 2.97667 11.8438 3.68799V5.98218H11.8411ZM18.5339 11.2979V16.4854H22.75V21.4935H18.5339V26.6811H14.4635V21.4935H10.2474V16.4854H14.4635V11.2979H18.5339Z" fill="#9138E8"/>
</svg>
