<svg width="32" height="32" viewBox="0 0 32 32" fill="none" xmlns="http://www.w3.org/2000/svg">
<path fill-rule="evenodd" clip-rule="evenodd" d="M15.8415 5.12121C17.9274 2.63354 19.3883 0.482532 22.6019 0.0624589C28.6357 -0.730018 34.1852 6.33673 31.1383 13.2933C30.568 14.5952 29.6123 16.055 28.4717 17.5595V17.3778H21.0576H20.6644L20.3883 17.7055L19.1409 19.1773L16.568 13.5256L15.7139 11.6487L14.8962 13.5465L12.5654 18.9568L10.2555 15.1225L9.44303 13.7759L8.69043 15.1702L7.60709 17.1722H2.85189C1.2347 14.6309 0.0992821 11.8871 0.00553209 8.92271C-0.163739 3.5005 3.57584 0.0267081 7.87793 0.0922513C11.7217 0.148857 13.3389 2.33562 15.8415 5.12121ZM26.904 19.5228C26.7868 19.6629 26.6696 19.8029 26.5524 19.9429C24.4092 22.4812 22.0368 24.9689 20.3753 26.8547L15.8441 31.9969L12.0993 27.8736C9.81803 25.3592 6.80762 22.517 4.3623 19.3173H8.12532H8.64355L8.91959 18.8048L9.52376 17.6847L11.9274 21.6739L12.8311 23.1754L13.5342 21.5398L15.7503 16.3917L18.0654 21.4832L18.6644 22.8L19.568 21.7334L21.443 19.5228H26.904Z" fill="#9138E8"/>
</svg>
