<svg width="173" height="40" viewBox="0 0 173 40" fill="none" xmlns="http://www.w3.org/2000/svg">
<path d="M62.8209 9.42969V30.9997H58.5009L48.7109 16.1997V30.9997H44.3809V9.42969H48.7109L58.5009 24.2497V9.42969H62.8209Z" fill="#3A3A3A"/>
<path d="M73.7809 13.6297C74.873 13.5887 75.9585 13.8151 76.9432 14.2891C77.9279 14.7632 78.7819 15.4705 79.4309 16.3497V13.9097H83.7909V31.1397C83.7909 35.7697 80.9409 39.4497 75.3209 39.4497C70.5009 39.4497 67.1409 37.0397 66.7109 33.1197H71.0009C71.4309 34.6597 73.0009 35.6797 75.2009 35.6797C77.5809 35.6797 79.4309 34.3197 79.4309 31.1397V28.4897C78.7887 29.3823 77.9385 30.1048 76.9539 30.5944C75.9694 31.0841 74.8802 31.3262 73.7809 31.2997C69.4209 31.2997 65.9609 27.7397 65.9609 22.3997C65.9609 17.0597 69.4209 13.6297 73.7809 13.6297ZM74.8909 17.4297C72.5709 17.4297 70.3809 19.1597 70.3809 22.4297C70.3809 25.6997 72.5709 27.5297 74.8909 27.5297C77.2109 27.5297 79.4309 25.7297 79.4309 22.5297C79.4309 19.3297 77.2709 17.4297 74.8909 17.4297Z" fill="#3A3A3A"/>
<path d="M95.6108 31.3003C90.6708 31.3003 86.9308 27.8403 86.9308 22.4603C86.891 21.279 87.0893 20.1018 87.5138 18.9988C87.9384 17.8958 88.5806 16.8894 89.4021 16.0397C90.2237 15.19 91.2078 14.5143 92.2959 14.0528C93.384 13.5913 94.5539 13.3535 95.7358 13.3535C96.9177 13.3535 98.0876 13.5913 99.1757 14.0528C100.264 14.5143 101.248 15.19 102.069 16.0397C102.891 16.8894 103.533 17.8958 103.958 18.9988C104.382 20.1018 104.581 21.279 104.541 22.4603C104.581 23.6396 104.376 24.8143 103.94 25.9108C103.504 27.0073 102.846 28.0018 102.008 28.8319C101.169 29.662 100.168 30.3098 99.0672 30.7346C97.9664 31.1594 96.7896 31.352 95.6108 31.3003ZM95.6108 27.5303C97.9008 27.5303 100.091 25.8603 100.091 22.4603C100.091 19.0603 98.0008 17.4003 95.6708 17.4003C93.3408 17.4003 91.3208 19.0003 91.3208 22.4603C91.3208 25.9203 93.2908 27.5303 95.6108 27.5303Z" fill="#3A3A3A"/>
<path d="M114.41 13.6296C115.502 13.5938 116.588 13.8224 117.573 14.296C118.558 14.7695 119.415 15.4741 120.07 16.3496V13.9096H124.42V30.9996H120.07V28.4996C119.42 29.3917 118.561 30.1114 117.57 30.5959C116.578 31.0805 115.483 31.3152 114.38 31.2796C110.06 31.2796 106.6 27.7196 106.6 22.3796C106.6 17.0396 110.06 13.6296 114.41 13.6296ZM115.53 17.4296C113.21 17.4296 111.02 19.1596 111.02 22.4296C111.02 25.6996 113.21 27.5296 115.53 27.5296C117.85 27.5296 120.07 25.7296 120.07 22.5296C120.07 19.3296 117.9 17.4296 115.53 17.4296Z" fill="#3A3A3A"/>
<path d="M140.63 21.5697C140.63 18.8197 139.12 17.3397 136.83 17.3397C134.54 17.3397 133 18.8197 133 21.5697V30.9997H128.68V13.9097H133V15.9997C133.618 15.2324 134.406 14.6184 135.301 14.2056C136.196 13.7928 137.174 13.5922 138.16 13.6197C142.16 13.6197 144.99 16.2097 144.99 20.9397V30.9997H140.66L140.63 21.5697Z" fill="#3A3A3A"/>
<path d="M156.531 31.2999C151.531 31.2999 147.951 27.8399 147.951 22.4599C147.951 17.0799 151.471 13.6299 156.531 13.6299C157.66 13.5614 158.791 13.7333 159.849 14.1341C160.907 14.5349 161.868 15.1555 162.669 15.955C163.469 16.7546 164.091 17.7148 164.493 18.7723C164.895 19.8298 165.068 20.9605 165.001 22.0899C165.006 22.6489 164.966 23.2073 164.881 23.7599H152.331C152.338 24.2903 152.449 24.8142 152.66 25.301C152.871 25.7878 153.177 26.2278 153.559 26.5954C153.942 26.963 154.393 27.2509 154.888 27.4422C155.383 27.6335 155.911 27.7245 156.441 27.7099C157.155 27.7531 157.866 27.5783 158.478 27.2086C159.091 26.8389 159.577 26.2919 159.871 25.6399H164.531C164.014 27.3368 162.947 28.8136 161.499 29.8382C160.051 30.8628 158.303 31.377 156.531 31.2999ZM152.361 20.8599H160.491C160.475 20.347 160.355 19.8427 160.139 19.3772C159.924 18.9117 159.616 18.4947 159.235 18.151C158.854 17.8073 158.407 17.5442 157.922 17.3773C157.437 17.2104 156.923 17.1433 156.411 17.1799C155.395 17.1639 154.411 17.5355 153.658 18.219C152.906 18.9025 152.442 19.8467 152.361 20.8599Z" fill="#3A3A3A"/>
<path d="M17.7705 5.79L17.7105 5.91L17.8905 5.85L17.7705 5.79ZM17.8905 5.85L17.7105 5.91L17.7705 5.79L17.8905 5.85ZM33.3505 28.53C33.1536 28.8743 32.8905 29.1761 32.5763 29.418C32.2621 29.6599 31.9031 29.8372 31.5199 29.9395C31.1368 30.0418 30.7372 30.0671 30.3442 30.014C29.9512 29.9608 29.5727 29.8303 29.2305 29.63C29.0084 29.5078 28.8061 29.3527 28.6305 29.17L19.9205 34.17L19.7905 34.25C19.795 34.2899 19.795 34.3301 19.7905 34.37C19.8341 34.5739 19.8575 34.7815 19.8605 34.99C19.8867 35.4287 19.8161 35.8678 19.6539 36.2763C19.4916 36.6848 19.2416 37.0526 18.9215 37.3537C18.6014 37.6549 18.219 37.882 17.8014 38.0191C17.3839 38.1562 16.9413 38.1998 16.505 38.147C16.0686 38.0941 15.6493 37.946 15.2765 37.7132C14.9037 37.4804 14.5867 37.1685 14.3478 36.7996C14.1089 36.4307 13.9539 36.0138 13.8939 35.5784C13.8339 35.143 13.8703 34.6998 14.0005 34.28C14.1063 33.8464 14.3075 33.4418 14.5895 33.0958C14.8715 32.7498 15.2271 32.4711 15.6305 32.28C15.6678 32.212 15.7012 32.1419 15.7305 32.07C16.6902 30.2452 17.1848 28.2118 17.1705 26.15C16.9764 24.1971 16.5293 22.2777 15.8405 20.44C15.7605 20.16 15.6705 19.87 15.5705 19.57C15.3505 18.82 15.1405 18.17 14.9505 17.57C14.6605 16.7 14.4205 16.02 14.2205 15.46C13.6924 14.2334 13.3844 12.9234 13.3105 11.59C13.2449 10.0005 13.4789 8.4129 14.0005 6.91L11.8005 8.18L6.00047 11.56C5.87893 12.2412 5.52565 12.8595 5.00047 13.31V22.06C6.11882 20.9284 7.41625 19.9891 8.84047 19.28C10.2186 18.6671 11.6709 18.2367 13.1605 18C13.1792 18.0747 13.2026 18.1482 13.2305 18.22C13.3705 18.66 13.6005 19.34 13.8405 20.15C13.9105 20.39 13.9905 20.62 14.0605 20.84C12.7022 21.0425 11.3771 21.4259 10.1205 21.98C8.37732 22.8681 6.86945 24.1566 5.72047 25.74C5.8457 25.989 5.93332 26.2553 5.98047 26.53C6.06342 27.0224 6.02217 27.5276 5.86047 28C5.707 28.4388 5.45367 28.8359 5.12047 29.16C4.94484 29.3427 4.74255 29.4978 4.52047 29.62C4.17772 29.817 3.79953 29.9445 3.40748 29.9953C3.01544 30.0462 2.61723 30.0193 2.23558 29.9162C1.85393 29.8131 1.49632 29.6359 1.18317 29.3946C0.870015 29.1533 0.607451 28.8528 0.410469 28.51C0.213486 28.1673 0.0859415 27.7891 0.0351179 27.397C-0.0157057 27.005 0.0111867 26.6068 0.11426 26.2251C0.217333 25.8435 0.394568 25.4859 0.635846 25.1727C0.877123 24.8595 1.17772 24.597 1.52047 24.4C1.73877 24.2704 1.97449 24.1728 2.22047 24.11V13.92C1.77436 13.8012 1.36167 13.5811 1.01453 13.2768C0.667399 12.9725 0.395179 12.5922 0.219066 12.1654C0.0429536 11.7387 -0.0322999 11.2771 -0.00083625 10.8165C0.0306274 10.3559 0.167959 9.90882 0.400469 9.51C0.597291 9.16574 0.860412 8.86392 1.17462 8.62199C1.48882 8.38006 1.84787 8.20282 2.231 8.10053C2.61413 7.99824 3.01374 7.97292 3.40672 8.02604C3.7997 8.07916 4.17824 8.20966 4.52047 8.41C4.73994 8.53211 4.94179 8.68349 5.12047 8.86L13.3005 4.14L14.0005 3.76C13.9413 3.54809 13.9078 3.32988 13.9005 3.11V3C13.9005 2.20435 14.2165 1.44129 14.7791 0.87868C15.3418 0.31607 16.1048 0 16.9005 0C17.6961 0 18.4592 0.31607 19.0218 0.87868C19.5844 1.44129 19.9005 2.20435 19.9005 3C19.9057 3.07324 19.9057 3.14676 19.9005 3.22C19.8917 3.39962 19.8614 3.57754 19.8105 3.75C19.6932 4.21329 19.4669 4.64185 19.1505 5C18.8147 5.39398 18.3797 5.69092 17.8905 5.86L17.7705 5.8L17.7105 5.92C16.724 7.62385 16.2129 9.56125 16.2305 11.53C16.3041 12.566 16.5579 13.5812 16.9805 14.53C17.2105 15.18 17.5005 16.01 17.8605 17.1C18.0105 17.59 18.1805 18.1 18.3705 18.73C18.5005 19.16 18.6305 19.56 18.7505 19.94C19.4796 21.925 19.9306 24.0014 20.0905 26.11C20.1237 27.9271 19.8185 29.7345 19.1905 31.44L21.4205 30.15L27.7805 26.48C27.84 26.1279 27.9619 25.7893 28.1405 25.48C28.3098 25.1839 28.5298 24.9199 28.7905 24.7V15.59C27.6711 16.8474 26.311 17.8675 24.7905 18.59C23.5782 19.1435 22.2788 19.4819 20.9505 19.59L20.5005 19.65L20.4305 19.41C20.3505 19.17 20.0505 18.18 20.0505 18.18C19.9005 17.68 19.7505 17.18 19.6105 16.79L20.5205 16.66C21.5558 16.5962 22.5716 16.349 23.5205 15.93C25.3117 15.0235 26.8173 13.6391 27.8705 11.93C27.8705 11.81 27.8005 11.68 27.7705 11.55C27.6764 11.0316 27.7177 10.4977 27.8905 10C28.0425 9.55764 28.296 9.15697 28.6305 8.83C28.8091 8.65349 29.011 8.50211 29.2305 8.38C29.9227 7.98218 30.7446 7.87563 31.5154 8.08379C32.2861 8.29196 32.9426 8.79778 33.3405 9.49C33.7383 10.1822 33.8448 11.0041 33.6367 11.7749C33.4285 12.5457 32.9227 13.2022 32.2305 13.6C32.0085 13.722 31.7737 13.8193 31.5305 13.89V24.09C31.7751 24.1567 32.0103 24.2541 32.2305 24.38C32.5804 24.5751 32.8878 24.8383 33.1343 25.1541C33.3809 25.4699 33.5617 25.8319 33.6661 26.2187C33.7705 26.6055 33.7964 27.0093 33.7421 27.4063C33.6879 27.8032 33.5548 28.1853 33.3505 28.53ZM17.8905 5.85L17.7105 5.91L17.7705 5.79L17.8905 5.85ZM12.8905 33.52C12.8209 33.6435 12.7275 33.7519 12.6157 33.839C12.5039 33.9261 12.3759 33.9902 12.2391 34.0274C12.1023 34.0646 11.9595 34.0743 11.819 34.0558C11.6785 34.0374 11.543 33.9912 11.4205 33.92L6.73047 31.18C6.60781 31.1096 6.50032 31.0156 6.41421 30.9034C6.32811 30.7912 6.26511 30.663 6.22884 30.5264C6.19257 30.3897 6.18376 30.2471 6.20292 30.107C6.22209 29.9669 6.26883 29.8319 6.34047 29.71C6.41086 29.5873 6.50488 29.4798 6.61707 29.3937C6.72927 29.3076 6.85742 29.2446 6.99412 29.2084C7.13082 29.1721 7.27335 29.1633 7.41347 29.1825C7.55359 29.2016 7.68853 29.2484 7.81047 29.32L12.5405 32.06C12.6636 32.1286 12.7719 32.221 12.8589 32.332C12.9458 32.4429 13.0098 32.57 13.0471 32.706C13.0843 32.842 13.0941 32.984 13.0758 33.1237C13.0575 33.2635 13.0115 33.3982 12.9405 33.52H12.8905ZM15.4905 30.47C15.3464 30.7157 15.1111 30.8946 14.8358 30.9676C14.5604 31.0407 14.2674 31.002 14.0205 30.86L7.37047 27C7.12813 26.8526 6.95348 26.6159 6.88425 26.3408C6.81502 26.0658 6.85676 25.7745 7.00047 25.53C7.07002 25.4065 7.16342 25.2981 7.27524 25.211C7.38706 25.1239 7.51506 25.0598 7.65183 25.0226C7.78859 24.9854 7.93139 24.9757 8.07192 24.9942C8.21246 25.0126 8.34793 25.0588 8.47047 25.13L15.1405 29C15.3879 29.1424 15.5689 29.377 15.6438 29.6525C15.7188 29.9279 15.6816 30.2219 15.5405 30.47H15.4905ZM15.1505 26.05C15.0081 26.2974 14.7735 26.4784 14.498 26.5533C14.2225 26.6283 13.9286 26.5911 13.6805 26.45L11.3105 25.08C11.0781 24.9231 10.9158 24.6821 10.858 24.4077C10.8001 24.1334 10.8512 23.8473 11.0005 23.61C11.0709 23.4873 11.1649 23.3798 11.2771 23.2937C11.3893 23.2076 11.5174 23.1446 11.6541 23.1084C11.7908 23.0721 11.9333 23.0633 12.0735 23.0825C12.2136 23.1016 12.3485 23.1484 12.4705 23.22L14.8405 24.58C15.0811 24.729 15.2537 24.9665 15.321 25.2414C15.3883 25.5163 15.3451 25.8067 15.2005 26.05H15.1505ZM20.5405 5C20.6906 4.76296 20.9286 4.59512 21.2023 4.53326C21.4759 4.4714 21.763 4.52058 22.0005 4.67L26.5905 7.67C26.7087 7.7461 26.8108 7.84477 26.8909 7.96037C26.971 8.07596 27.0276 8.20621 27.0573 8.34366C27.087 8.48112 27.0893 8.62309 27.0641 8.76145C27.0389 8.8998 26.9867 9.03184 26.9105 9.15C26.7549 9.38952 26.5108 9.55766 26.2315 9.61763C25.9523 9.6776 25.6607 9.62452 25.4205 9.47L20.8305 6.47C20.5993 6.31172 20.4394 6.06909 20.3852 5.79423C20.331 5.51937 20.3867 5.23421 20.5405 5ZM17.7805 7.9C17.936 7.66048 18.1802 7.49235 18.4594 7.43237C18.7386 7.3724 19.0303 7.42548 19.2705 7.58L25.7605 11.79C25.9983 11.9472 26.1644 12.192 26.2225 12.4711C26.2806 12.7502 26.2259 13.041 26.0705 13.28C25.9149 13.5195 25.6708 13.6877 25.3915 13.7476C25.1123 13.8076 24.8207 13.7545 24.5805 13.6L18.1005 9.39C17.861 9.23442 17.6928 8.99031 17.6328 8.71107C17.5729 8.43183 17.626 8.1402 17.7805 7.9ZM17.8905 12.33C18.0445 12.0888 18.2878 11.9186 18.5672 11.8568C18.8466 11.7949 19.1391 11.8464 19.3805 12L21.6705 13.49C21.7926 13.5663 21.8983 13.6662 21.9813 13.7839C22.0642 13.9017 22.1228 14.0348 22.1535 14.1755C22.1843 14.3162 22.1866 14.4616 22.1603 14.6032C22.134 14.7448 22.0797 14.8797 22.0005 15C21.9235 15.1188 21.8238 15.2212 21.707 15.3012C21.5903 15.3812 21.4588 15.4373 21.3202 15.4661C21.1816 15.4949 21.0387 15.496 20.8997 15.4692C20.7607 15.4424 20.6284 15.3883 20.5105 15.31L18.2105 13.82C18.0908 13.7439 17.9875 13.6447 17.9065 13.5283C17.8256 13.4119 17.7685 13.2806 17.7388 13.1419C17.709 13.0033 17.7071 12.8601 17.7331 12.7207C17.7592 12.5814 17.8126 12.4485 17.8905 12.33Z" fill="#9138E8"/>
<path d="M172.43 11.1403C172.43 11.5224 172.281 11.8893 172.013 12.1622C171.746 12.4352 171.382 12.5925 171 12.6003H169.28V14.3203C169.297 14.5229 169.272 14.7267 169.206 14.9189C169.14 15.1112 169.034 15.2876 168.897 15.4372C168.759 15.5867 168.592 15.706 168.406 15.7877C168.22 15.8693 168.019 15.9115 167.815 15.9115C167.612 15.9115 167.411 15.8693 167.225 15.7877C167.039 15.706 166.872 15.5867 166.734 15.4372C166.596 15.2876 166.491 15.1112 166.425 14.9189C166.359 14.7267 166.334 14.5229 166.35 14.3203V12.6003H164.62C164.253 12.5699 163.91 12.4024 163.66 12.131C163.41 11.8596 163.271 11.5042 163.271 11.1353C163.271 10.7664 163.41 10.411 163.66 10.1396C163.91 9.86824 164.253 9.70072 164.62 9.67032H166.35V8.00032C166.334 7.79776 166.359 7.59392 166.425 7.40169C166.491 7.20946 166.596 7.03301 166.734 6.88348C166.872 6.73396 167.039 6.61461 167.225 6.53297C167.411 6.45133 167.612 6.40918 167.815 6.40918C168.019 6.40918 168.22 6.45133 168.406 6.53297C168.592 6.61461 168.759 6.73396 168.897 6.88348C169.034 7.03301 169.14 7.20946 169.206 7.40169C169.272 7.59392 169.297 7.79776 169.28 8.00032V9.67032H171C171.383 9.68074 171.747 9.84021 172.014 10.1148C172.281 10.3893 172.43 10.7573 172.43 11.1403Z" fill="url(#paint0_linear_104_10665)"/>
<defs>
<linearGradient id="paint0_linear_104_10665" x1="163.12" y1="11.1403" x2="172.43" y2="11.1403" gradientUnits="userSpaceOnUse">
<stop offset="0.32" stop-color="#8543E5"/>
<stop offset="1" stop-color="#CC00F7"/>
</linearGradient>
</defs>
</svg>
