<svg width="24" height="25" viewBox="0 0 24 25" fill="none" xmlns="http://www.w3.org/2000/svg">
<path d="M19.1199 15.4414L19.4399 16.0914C19.5999 16.4114 20.0099 16.7114 20.3499 16.7714L20.7799 16.8414C22.0899 17.0614 22.3899 18.0214 21.4599 18.9614L21.0599 19.3614C20.7899 19.6314 20.6499 20.1514 20.7299 20.5314L20.7799 20.7714C21.1399 22.3514 20.2999 22.9614 18.9299 22.1314L18.6399 21.9514C18.2899 21.7414 17.7099 21.7414 17.3599 21.9514L17.0699 22.1314C15.6899 22.9614 14.8599 22.3514 15.2199 20.7714L15.2699 20.5314C15.3499 20.1614 15.2099 19.6314 14.9399 19.3614L14.5399 18.9614C13.6099 18.0114 13.9099 17.0614 15.2199 16.8414L15.6499 16.7714C15.9999 16.7114 16.3999 16.4114 16.5599 16.0914L16.8799 15.4414C17.4999 14.1914 18.4999 14.1914 19.1199 15.4414Z" fill="white"/>
<path d="M16.19 2.5H7.81C4.17 2.5 2 4.67 2 8.31V16.69C2 20.33 4.17 22.5 7.81 22.5H13.09C13.44 22.5 13.69 22.14 13.65 21.79C13.61 21.41 13.63 20.96 13.75 20.44C13.77 20.37 13.75 20.29 13.69 20.23L13.47 20.01C12.62 19.15 12.31 18.11 12.61 17.16C12.92 16.22 13.78 15.56 14.97 15.36L15.27 15.31L15.54 14.77C16.09 13.65 16.99 13 18 13C19.01 13 19.91 13.65 20.46 14.77L20.61 15.08C20.68 15.23 20.82 15.33 20.98 15.36L21.25 15.42C21.6 15.51 22 15.23 22 14.86V8.31C22 4.67 19.83 2.5 16.19 2.5ZM16.26 9.46L13.95 12.44C13.66 12.81 13.25 13.05 12.78 13.1C12.32 13.16 11.85 13.03 11.49 12.74L9.66 11.32C9.63437 11.2975 9.60387 11.2813 9.57089 11.2726C9.53792 11.2639 9.50338 11.263 9.47 11.27C9.43 11.27 9.36 11.29 9.3 11.37L6.92 14.46C6.79623 14.6172 6.61534 14.719 6.41678 14.7434C6.21822 14.7677 6.01808 14.7126 5.86 14.59C5.78186 14.5303 5.71625 14.4557 5.66693 14.3706C5.6176 14.2855 5.58552 14.1915 5.57252 14.094C5.55952 13.9965 5.56586 13.8974 5.59116 13.8023C5.61646 13.7073 5.66024 13.6181 5.72 13.54L8.1 10.45C8.39 10.08 8.8 9.84 9.27 9.78C9.74 9.72 10.2 9.85 10.57 10.14L12.4 11.58C12.47 11.64 12.54 11.63 12.59 11.63C12.63 11.63 12.7 11.61 12.76 11.53L15.07 8.55C15.32 8.22 15.79 8.16 16.12 8.42C16.46 8.67 16.51 9.14 16.26 9.46Z" fill="white"/>
</svg>
