<svg width="24" height="25" viewBox="0 0 24 25" fill="none" xmlns="http://www.w3.org/2000/svg">
<path d="M22.1994 2.30407C21.0441 1.14893 19.4772 0.5 17.8435 0.5C16.2097 0.5 14.6429 1.14893 13.4875 2.30407L1.7491 14.041C0.618148 15.2011 -0.0102186 16.7599 0.000125721 18.38C0.01047 20 0.658692 21.5508 1.80437 22.6963C2.95004 23.8418 4.5009 24.4897 6.12099 24.4999C7.74108 24.51 9.29992 23.8815 10.4598 22.7504L22.1994 11.0134C23.3525 9.85746 24 8.29142 24 6.65874C24 5.02606 23.3525 3.46001 22.1994 2.30407ZM20.8903 9.70545L15.0211 15.5734L8.92747 9.48109L14.7967 3.61203C15.608 2.81953 16.699 2.3788 17.8331 2.38542C18.9672 2.39205 20.0529 2.8455 20.8549 3.64742C21.6568 4.44935 22.1103 5.53509 22.1169 6.66917C22.1235 7.80324 21.6828 8.89421 20.8903 9.70545ZM19.1058 7.2468C19.1918 7.33272 19.2601 7.43476 19.3066 7.54707C19.3532 7.65939 19.3771 7.77978 19.3771 7.90136C19.3771 8.02294 19.3532 8.14333 19.3066 8.25565C19.2601 8.36796 19.1918 8.47 19.1058 8.55592L16.3302 11.3314C16.2442 11.4173 16.1422 11.4854 16.0299 11.5319C15.9176 11.5783 15.7973 11.6022 15.6758 11.6022C15.5543 11.6021 15.434 11.5781 15.3217 11.5316C15.2095 11.485 15.1075 11.4168 15.0216 11.3309C14.9357 11.2449 14.8676 11.1429 14.8212 11.0306C14.7747 10.9183 14.7509 10.798 14.7509 10.6765C14.751 10.555 14.7749 10.4346 14.8215 10.3224C14.868 10.2102 14.9362 10.1082 15.0222 10.0223L17.7978 7.2468C17.9713 7.07343 18.2065 6.97604 18.4518 6.97604C18.6971 6.97604 18.9323 7.07343 19.1058 7.2468Z" fill="white"/>
</svg>
