<svg width="21" height="20" viewBox="0 0 21 20" fill="none" xmlns="http://www.w3.org/2000/svg">
<path d="M10.5 0C4.98 0 0.5 4.48 0.5 10C0.5 15.52 4.98 20 10.5 20C16.02 20 20.5 15.52 20.5 10C20.5 4.48 16.02 0 10.5 0ZM6.44 8.56C6.44 6.7 7.95 5.18 9.82 5.18C11.69 5.18 13.2 6.69 13.2 8.56C13.2 10.43 11.69 11.94 9.82 11.94C7.95 11.94 6.44 10.43 6.44 8.56ZM14.09 13.34L11.09 16.34C10.94 16.49 10.75 16.56 10.56 16.56C10.37 16.56 10.18 16.49 10.03 16.34C9.89052 16.1989 9.8123 16.0084 9.8123 15.81C9.8123 15.6116 9.89052 15.4211 10.03 15.28L13.03 12.28C13.32 11.99 13.8 11.99 14.09 12.28C14.38 12.57 14.39 13.05 14.09 13.34ZM15.01 6.31C14.46 6.31 14.01 5.86 14.01 5.31C14.01 4.76 14.45 4.31 15.01 4.31H15.02C15.57 4.31 16.02 4.76 16.02 5.31C16.02 5.86 15.56 6.31 15.01 6.31Z" fill="white"/>
</svg>
